<svg width="119" height="33" viewBox="0 0 119 33" fill="none" xmlns="http://www.w3.org/2000/svg">
<path d="M83.718 19.1411H80.1074V5.25244H85.8545C87.4145 5.25244 88.6075 5.6571 89.4378 6.46853C90.266 7.27996 90.6811 8.42058 90.6811 9.89457C90.6811 11.3686 90.266 12.5092 89.4378 13.3206C88.6096 14.132 87.4145 14.5367 85.8545 14.5367H83.718V19.1411ZM83.718 11.6264H84.9152C86.2424 11.6264 86.905 11.0499 86.905 9.89457C86.905 8.73928 86.2424 8.16268 84.9152 8.16268H83.718V11.6264Z" fill="white"/>
<path d="M96.2062 5.25244V12.8048C96.2062 13.2095 96.2209 13.6246 96.2524 14.0482C96.2838 14.4717 96.3761 14.8554 96.5291 15.1992C96.6822 15.5431 96.9254 15.822 97.2567 16.0379C97.588 16.2539 98.0555 16.3608 98.6573 16.3608C99.2591 16.3608 99.7224 16.2539 100.047 16.0379C100.372 15.8241 100.616 15.5431 100.775 15.1992C100.934 14.8554 101.029 14.4717 101.06 14.0482C101.092 13.6246 101.106 13.2095 101.106 12.8048V5.25244H104.698V13.3017C104.698 15.4634 104.203 17.0402 103.216 18.0361C102.228 19.0299 100.708 19.529 98.6573 19.529C96.6067 19.529 95.0845 19.032 94.0886 18.0361C93.0947 17.0423 92.5957 15.4634 92.5957 13.3017V5.25244H96.2062Z" fill="white"/>
<path d="M107.607 5.25234H112.985C114.262 5.25234 115.232 5.55847 115.895 6.1728C116.557 6.78714 116.889 7.67195 116.889 8.82514C116.889 9.52545 116.763 10.1062 116.511 10.5654C116.26 11.0267 115.876 11.4167 115.36 11.7354C115.876 11.8339 116.314 11.9849 116.677 12.1862C117.04 12.3896 117.333 12.637 117.562 12.9326C117.788 13.2282 117.952 13.5595 118.05 13.9264C118.149 14.2955 118.197 14.6876 118.197 15.1048C118.197 15.7548 118.084 16.3335 117.855 16.8367C117.629 17.3399 117.308 17.7634 116.897 18.1073C116.486 18.4512 115.985 18.709 115.396 18.881C114.807 19.0529 114.144 19.1389 113.406 19.1389H107.604V5.25024L107.607 5.25234ZM111.217 10.7059H111.88C113.01 10.7059 113.574 10.2572 113.574 9.3619C113.574 8.46661 113.01 8.01791 111.88 8.01791H111.217V10.708V10.7059ZM111.217 16.3419H112.01C112.918 16.3419 113.57 16.2244 113.962 15.9917C114.354 15.759 114.551 15.3837 114.551 14.8679C114.551 14.3521 114.354 13.9768 113.962 13.744C113.568 13.5113 112.918 13.3939 112.01 13.3939H111.217V16.3419Z" fill="white"/>
<path d="M55.8818 5.25476C59.7167 5.25476 62.8261 8.36209 62.8261 12.1991C62.8261 16.0361 59.7167 19.1434 55.8818 19.1434C52.0469 19.1434 48.9375 16.034 48.9375 12.1991C48.9375 8.36419 52.0448 5.25476 55.8818 5.25476ZM58.7187 12.1991C58.7187 10.6328 57.4481 9.36222 55.8818 9.36222C54.3156 9.36222 53.045 10.6328 53.045 12.1991C53.045 13.7653 54.3156 15.0338 55.8818 15.0338C57.4481 15.0338 58.7187 13.7632 58.7187 12.1991Z" fill="white"/>
<path d="M37.7539 5.25244V8.84201H41.3435V19.1411H45.323V5.25244H37.7539Z" fill="white"/>
<path d="M65.0156 5.25244V8.84201H68.6031V19.1411H72.5827V5.25244H65.0156Z" fill="white"/>
<path d="M37.7539 22.9738V22.3511H38.9973V26.7122H38.3095V22.9738H37.7539Z" fill="white"/>
<path d="M42.6979 22.8566C42.9306 23.2445 43.048 23.7854 43.048 24.4752C43.048 25.165 42.9306 25.7186 42.6979 26.1107C42.4652 26.5028 42.0626 26.6998 41.4923 26.6998C40.922 26.6998 40.5194 26.5028 40.2867 26.1107C40.0539 25.7186 39.9365 25.1734 39.9365 24.4752C39.9365 23.777 40.0539 23.2466 40.2867 22.8566C40.5194 22.4687 40.922 22.2737 41.4923 22.2737C42.0626 22.2737 42.4652 22.4687 42.6979 22.8566ZM40.9241 23.1082C40.7962 23.2508 40.7123 23.4332 40.6704 23.6554C40.6284 23.8798 40.6075 24.1523 40.6075 24.4752C40.6075 24.7981 40.6263 25.0917 40.6683 25.3181C40.7081 25.5446 40.792 25.7291 40.922 25.8675C41.052 26.0079 41.2428 26.0771 41.4923 26.0771C41.7418 26.0771 41.9347 26.0079 42.0626 25.8675C42.1926 25.727 42.2765 25.5446 42.3163 25.3181C42.3561 25.0917 42.3771 24.8086 42.3771 24.4752C42.3771 24.1419 42.3561 23.8798 42.3142 23.6554C42.2723 23.4332 42.1884 23.2487 42.0605 23.1082C41.9326 22.9677 41.7439 22.8964 41.4923 22.8964C41.2407 22.8964 41.052 22.9677 40.9241 23.1082Z" fill="white"/>
<path d="M43.6836 22.9738V22.3511H44.9269V26.7122H44.2392V22.9738H43.6836Z" fill="white"/>
<path d="M48.1941 25.0251V26.713H47.5127V22.5552H48.9489C49.2676 22.5552 49.5381 22.6097 49.7604 22.7187C49.9826 22.8277 50.1462 22.9766 50.2573 23.1653C50.3663 23.354 50.4208 23.5616 50.4208 23.7943C50.4208 24.0061 50.3705 24.2053 50.272 24.3919C50.1713 24.5785 50.012 24.7316 49.7939 24.849C49.5738 24.9664 49.2928 25.0251 48.951 25.0251H48.1962H48.1941ZM49.5276 24.2934C49.6555 24.1759 49.7184 24.0082 49.7184 23.7943C49.7184 23.3393 49.4605 23.1129 48.9468 23.1129H48.192V24.4716H48.9468C49.2068 24.4716 49.3997 24.4129 49.5276 24.2955V24.2934Z" fill="white"/>
<path d="M54.0559 23.4163V26.7123H53.3745V26.3244C53.2676 26.4607 53.1271 26.5676 52.9531 26.6452C52.779 26.7228 52.5945 26.7626 52.3995 26.7626C52.1395 26.7626 51.9089 26.7081 51.7034 26.6012C51.498 26.4942 51.3365 26.3349 51.2191 26.1231C51.1017 25.9113 51.043 25.6556 51.043 25.3578V23.4205H51.7181V25.2572C51.7181 25.5528 51.7915 25.7793 51.9404 25.9365C52.0871 26.0938 52.2884 26.1734 52.5442 26.1734C52.8 26.1734 53.0013 26.0938 53.1523 25.9365C53.3011 25.7793 53.3766 25.5528 53.3766 25.2572V23.4205H54.058L54.0559 23.4163Z" fill="white"/>
<path d="M57.574 23.5717C57.8088 23.7121 57.9955 23.9092 58.1296 24.1671C58.2659 24.425 58.333 24.7186 58.333 25.0498C58.333 25.3811 58.2659 25.6768 58.1296 25.9389C57.9934 26.2009 57.8088 26.4043 57.5698 26.549C57.3329 26.6937 57.0708 26.7671 56.7836 26.7671C56.5278 26.7671 56.3013 26.7167 56.1042 26.6182C55.9071 26.5175 55.7499 26.3917 55.6346 26.2345V26.7125H54.9531V22.2864H55.6346V23.9071C55.7499 23.7478 55.9092 23.6178 56.1105 23.5151C56.3118 23.4123 56.5361 23.362 56.7836 23.362C57.075 23.362 57.3371 23.4312 57.574 23.5717ZM56.1462 24.0854C55.9931 24.1734 55.8694 24.3013 55.775 24.4691C55.6807 24.6368 55.6346 24.8339 55.6346 25.0603C55.6346 25.2868 55.6807 25.486 55.775 25.6558C55.8694 25.8256 55.9931 25.9535 56.1462 26.0416C56.2992 26.1297 56.4628 26.1737 56.6326 26.1737C56.8024 26.1737 56.9723 26.1297 57.1253 26.0395C57.2784 25.9493 57.4021 25.8193 57.4964 25.6474C57.5908 25.4755 57.6369 25.2763 57.6369 25.0498C57.6369 24.8234 57.5908 24.6263 57.4964 24.4607C57.4021 24.295 57.2784 24.1692 57.1253 24.0833C56.9723 23.9973 56.8066 23.9554 56.6326 23.9554C56.4586 23.9554 56.2992 23.9994 56.1462 24.0875V24.0854Z" fill="white"/>
<path d="M59.6922 22.2864V26.7125H59.0107V22.2864H59.6922Z" fill="white"/>
<path d="M60.6248 22.2315C60.7087 22.1476 60.8114 22.1057 60.9351 22.1057C61.0588 22.1057 61.1574 22.1476 61.2413 22.2315C61.3251 22.3154 61.3671 22.4181 61.3671 22.5418C61.3671 22.6655 61.3251 22.7683 61.2413 22.8521C61.1574 22.936 61.0567 22.9779 60.9351 22.9779C60.8135 22.9779 60.7087 22.936 60.6248 22.8521C60.541 22.7683 60.499 22.6655 60.499 22.5418C60.499 22.4181 60.541 22.3154 60.6248 22.2315ZM61.2706 23.4162V26.7122H60.5892V23.4162H61.2706Z" fill="white"/>
<path d="M64.5457 23.6479C64.8057 23.8367 64.9839 24.1071 65.074 24.4594H64.3381C64.2773 24.2958 64.1829 24.1679 64.0508 24.0757C63.9188 23.9834 63.7531 23.9373 63.5539 23.9373C63.2751 23.9373 63.0528 24.0358 62.8872 24.2329C62.7215 24.43 62.6398 24.7068 62.6398 25.0611C62.6398 25.4155 62.7215 25.6943 62.8872 25.8935C63.0528 26.0927 63.2751 26.1934 63.5539 26.1934C63.9481 26.1934 64.2102 26.0193 64.3381 25.6734H65.074C64.9776 26.0088 64.7994 26.2751 64.5352 26.4722C64.271 26.6693 63.946 26.7679 63.5539 26.7679C63.2394 26.7679 62.9606 26.6966 62.7173 26.5561C62.4741 26.4135 62.2833 26.2143 62.147 25.9585C62.0086 25.7006 61.9395 25.4029 61.9395 25.0632C61.9395 24.7236 62.0086 24.4258 62.147 24.1679C62.2854 23.91 62.4741 23.7129 62.7173 23.5725C62.9606 23.432 63.2394 23.3628 63.5539 23.3628C63.9523 23.3628 64.2836 23.4571 64.5436 23.6459L64.5457 23.6479Z" fill="white"/>
<path d="M67.9949 25.0251V26.713H67.3135V22.5552H68.7497C69.0684 22.5552 69.3389 22.6097 69.5612 22.7187C69.7834 22.8277 69.947 22.9766 70.0581 23.1653C70.1671 23.354 70.2216 23.5616 70.2216 23.7943C70.2216 24.0061 70.1713 24.2053 70.0728 24.3919C69.9721 24.5785 69.8128 24.7316 69.5947 24.849C69.3745 24.9664 69.0936 25.0251 68.7518 25.0251H67.997H67.9949ZM69.3284 24.2934C69.4563 24.1759 69.5192 24.0082 69.5192 23.7943C69.5192 23.3393 69.2613 23.1129 68.7476 23.1129H67.9928V24.4716H68.7476C69.0076 24.4716 69.2005 24.4129 69.3284 24.2955V24.2934Z" fill="white"/>
<path d="M71.4586 26.554C71.207 26.4114 71.0099 26.2122 70.8673 25.9564C70.7227 25.6985 70.6514 25.4008 70.6514 25.0611C70.6514 24.7215 70.7248 24.43 70.8736 24.17C71.0204 23.91 71.2217 23.7108 71.4775 23.5725C71.7333 23.432 72.0184 23.3628 72.3329 23.3628C72.6474 23.3628 72.9326 23.432 73.1884 23.5725C73.4442 23.7129 73.6455 23.9121 73.7922 24.17C73.939 24.43 74.0145 24.7257 74.0145 25.0611C74.0145 25.3966 73.939 25.6943 73.7881 25.9522C73.6371 26.2122 73.4295 26.4114 73.1695 26.554C72.9074 26.6966 72.6202 26.7658 72.3057 26.7658C71.9912 26.7658 71.7144 26.6945 71.4628 26.554H71.4586ZM72.7942 26.0487C72.9473 25.9648 73.0731 25.839 73.1674 25.6713C73.2639 25.5035 73.3121 25.3002 73.3121 25.0611C73.3121 24.8221 73.266 24.6187 73.1737 24.4531C73.0815 24.2874 72.9599 24.1637 72.8089 24.0799C72.6579 23.996 72.4944 23.9541 72.3183 23.9541C72.1421 23.9541 71.9807 23.996 71.8297 24.0799C71.6809 24.1637 71.5613 24.2874 71.4733 24.4531C71.3852 24.6187 71.3412 24.82 71.3412 25.0611C71.3412 25.4155 71.4313 25.6901 71.6138 25.883C71.7962 26.0759 72.0226 26.1724 72.2994 26.1724C72.4755 26.1724 72.6391 26.1305 72.7921 26.0466L72.7942 26.0487Z" fill="white"/>
<path d="M75.3709 22.2864V26.7125H74.6895V22.2864H75.3709Z" fill="white"/>
<path d="M76.3045 22.2315C76.3884 22.1476 76.4911 22.1057 76.6148 22.1057C76.7385 22.1057 76.8371 22.1476 76.9209 22.2315C77.0048 22.3154 77.0468 22.4181 77.0468 22.5418C77.0468 22.6655 77.0048 22.7683 76.9209 22.8521C76.8371 22.936 76.7364 22.9779 76.6148 22.9779C76.4932 22.9779 76.3884 22.936 76.3045 22.8521C76.2206 22.7683 76.1787 22.6655 76.1787 22.5418C76.1787 22.4181 76.2206 22.3154 76.3045 22.2315ZM76.9503 23.4162V26.7122H76.2689V23.4162H76.9503Z" fill="white"/>
<path d="M80.2254 23.6479C80.4853 23.8367 80.6636 24.1071 80.7537 24.4594H80.0178C79.957 24.2958 79.8626 24.1679 79.7305 24.0757C79.5984 23.9834 79.4328 23.9373 79.2336 23.9373C78.9547 23.9373 78.7325 24.0358 78.5669 24.2329C78.4012 24.43 78.3194 24.7068 78.3194 25.0611C78.3194 25.4155 78.4012 25.6943 78.5669 25.8935C78.7325 26.0927 78.9547 26.1934 79.2336 26.1934C79.6278 26.1934 79.8899 26.0193 80.0178 25.6734H80.7537C80.6573 26.0088 80.4791 26.2751 80.2149 26.4722C79.9507 26.6693 79.6257 26.7679 79.2336 26.7679C78.9191 26.7679 78.6402 26.6966 78.397 26.5561C78.1538 26.4135 77.963 26.2143 77.8267 25.9585C77.6883 25.7006 77.6191 25.4029 77.6191 25.0632C77.6191 24.7236 77.6883 24.4258 77.8267 24.1679C77.9651 23.91 78.1538 23.7129 78.397 23.5725C78.6402 23.432 78.9191 23.3628 79.2336 23.3628C79.632 23.3628 79.9633 23.4571 80.2233 23.6459L80.2254 23.6479Z" fill="white"/>
<path d="M84.4037 23.4163L82.3825 28.2618H81.6759L82.3447 26.6578L81.0469 23.4163H81.8059L82.7326 25.9281L83.695 23.4163H84.4016H84.4037Z" fill="white"/>
<path d="M89.1597 22.5552V23.1108H88.0526V26.713H87.3712V23.1108H86.2578V22.5552H89.1597Z" fill="white"/>
<path d="M92.2263 23.5236C92.4234 23.6305 92.5786 23.7899 92.6939 24.0016C92.8092 24.2134 92.8637 24.4692 92.8637 24.7669V26.7106H92.1886V24.8676C92.1886 24.5719 92.1152 24.3455 91.9663 24.1882C91.8195 24.031 91.6183 23.9513 91.3625 23.9513C91.1067 23.9513 90.9054 24.031 90.7544 24.1882C90.6055 24.3455 90.5301 24.5719 90.5301 24.8676V26.7106H89.8486V22.2844H90.5301V23.7983C90.6454 23.6578 90.7922 23.5508 90.9704 23.4754C91.1486 23.3999 91.3415 23.3621 91.5533 23.3621C91.8049 23.3621 92.0292 23.4166 92.2263 23.5236Z" fill="white"/>
<path d="M93.7655 22.2315C93.8493 22.1476 93.9521 22.1057 94.0758 22.1057C94.1995 22.1057 94.298 22.1476 94.3819 22.2315C94.4657 22.3154 94.5077 22.4181 94.5077 22.5418C94.5077 22.6655 94.4657 22.7683 94.3819 22.8521C94.298 22.936 94.1974 22.9779 94.0758 22.9779C93.9542 22.9779 93.8493 22.936 93.7655 22.8521C93.6816 22.7683 93.6396 22.6655 93.6396 22.5418C93.6396 22.4181 93.6816 22.3154 93.7655 22.2315ZM94.4112 23.4162V26.7122H93.7298V23.4162H94.4112Z" fill="white"/>
<path d="M97.6693 23.5242C97.8748 23.6312 98.0363 23.7905 98.1516 24.0023C98.2669 24.2141 98.3256 24.4699 98.3256 24.7676V26.7112H97.6505V24.8682C97.6505 24.5726 97.5771 24.3462 97.4282 24.1889C97.2815 24.0316 97.0802 23.952 96.8244 23.952C96.5686 23.952 96.3673 24.0316 96.2163 24.1889C96.0675 24.3462 95.992 24.5726 95.992 24.8682V26.7112H95.3105V23.4152H95.992V23.7926C96.1031 23.6563 96.2457 23.5515 96.4197 23.476C96.5937 23.4005 96.7782 23.3628 96.9732 23.3628C97.2332 23.3628 97.4639 23.4173 97.6693 23.5242Z" fill="white"/>
<path d="M100.495 25.0666L102.016 26.7125H101.095L99.8748 25.2952V26.7125H99.1934V22.2864H99.8748V24.859L101.072 23.4165H102.018L100.498 25.0687L100.495 25.0666Z" fill="white"/>
<path d="M106.749 22.5552V23.1108H105.641V26.713H104.96V23.1108H103.847V22.5552H106.749Z" fill="white"/>
<path d="M109.442 23.5159C109.635 23.6165 109.79 23.7444 109.906 23.8954V23.4173H110.593V26.7133H109.906V26.2227C109.79 26.3779 109.633 26.5079 109.434 26.6106C109.235 26.7133 109.006 26.7658 108.752 26.7658C108.469 26.7658 108.209 26.6924 107.974 26.5477C107.74 26.403 107.553 26.1996 107.415 25.9376C107.276 25.6755 107.207 25.3798 107.207 25.0486C107.207 24.7173 107.276 24.4237 107.415 24.17C107.553 23.9142 107.74 23.7171 107.977 23.5746C108.213 23.432 108.476 23.3628 108.763 23.3628C109.023 23.3628 109.249 23.4131 109.442 23.5159ZM108.417 24.0841C108.266 24.17 108.142 24.2958 108.05 24.4615C107.956 24.6271 107.909 24.8242 107.909 25.0507C107.909 25.2771 107.956 25.4784 108.05 25.6482C108.144 25.8201 108.268 25.9501 108.421 26.0403C108.574 26.1305 108.738 26.1745 108.91 26.1745C109.081 26.1745 109.249 26.1305 109.4 26.0424C109.551 25.9543 109.675 25.8264 109.767 25.6566C109.861 25.4868 109.908 25.2897 109.908 25.0611C109.908 24.8326 109.861 24.6355 109.767 24.4699C109.673 24.3021 109.551 24.1742 109.4 24.0862C109.249 23.9981 109.086 23.9541 108.91 23.9541C108.733 23.9541 108.57 23.996 108.419 24.082L108.417 24.0841Z" fill="white"/>
<path d="M113.852 23.5242C114.057 23.6312 114.219 23.7905 114.334 24.0023C114.45 24.2141 114.508 24.4699 114.508 24.7676V26.7112H113.833V24.8682C113.833 24.5726 113.76 24.3462 113.611 24.1889C113.464 24.0316 113.263 23.952 113.007 23.952C112.751 23.952 112.55 24.0316 112.399 24.1889C112.25 24.3462 112.175 24.5726 112.175 24.8682V26.7112H111.493V23.4152H112.175V23.7926C112.286 23.6563 112.428 23.5515 112.602 23.476C112.776 23.4005 112.961 23.3628 113.156 23.3628C113.416 23.3628 113.646 23.4173 113.852 23.5242Z" fill="white"/>
<path d="M116.679 25.0666L118.199 26.7125H117.279L116.058 25.2952V26.7125H115.377V22.2864H116.058V24.859L117.256 23.4165H118.201L116.681 25.0687L116.679 25.0666Z" fill="white"/>
<path d="M12.482 13.0805C12.1457 13.4168 11.6985 13.6022 11.2227 13.6022C10.7469 13.6022 10.3007 13.4168 9.96433 13.0805C9.2697 12.3859 9.2697 11.2575 9.96433 10.5628C10.3007 10.2265 10.7478 10.0411 11.2227 10.0411C11.4616 10.0411 11.6909 10.087 11.9049 10.1759C12.118 10.2638 12.3138 10.3956 12.482 10.5628C13.1766 11.2575 13.1766 12.3859 12.482 13.0805Z" fill="white"/>
<path d="M7.27364 7.87217C6.80546 8.33939 6.04395 8.33939 5.57672 7.87217C5.10854 7.40398 5.10854 6.64343 5.57672 6.17524C5.81081 5.94115 6.11752 5.82458 6.42518 5.82458C6.73285 5.82458 7.03955 5.94115 7.27364 6.17524C7.74087 6.64343 7.74087 7.40398 7.27364 7.87217Z" fill="white"/>
<path d="M22.7107 11.8221C22.7107 12.0601 22.6649 12.2903 22.576 12.5034C22.4881 12.7165 22.3562 12.9123 22.189 13.0805C21.8527 13.4168 21.4055 13.6022 20.9307 13.6022C20.4558 13.6022 20.0077 13.4168 19.6714 13.0805C18.9767 12.3859 18.9767 11.2575 19.6714 10.5628C20.0077 10.2265 20.4549 10.0411 20.9307 10.0411C21.4065 10.0411 21.8527 10.2265 22.189 10.5628C22.5254 10.8992 22.7107 11.3463 22.7107 11.8221Z" fill="white"/>
<path d="M26.5766 7.87217C26.1085 8.34035 25.3479 8.33939 24.8797 7.87217C24.4125 7.40398 24.4125 6.64343 24.8797 6.17524C25.1148 5.94115 25.4205 5.82458 25.7282 5.82458C26.0358 5.82458 26.3425 5.94115 26.5766 6.17524C27.0448 6.64343 27.0448 7.40398 26.5766 7.87217Z" fill="white"/>
<path d="M23.7889 17.5235C24.2576 17.0548 24.2576 16.295 23.7889 15.8263C23.3203 15.3577 22.5604 15.3577 22.0917 15.8263C21.6231 16.295 21.6231 17.0549 22.0917 17.5235C22.5604 17.9922 23.3203 17.9922 23.7889 17.5235Z" fill="white"/>
<path d="M30.985 17.9336C31.6802 17.2385 31.6802 16.1114 30.985 15.4162C30.2899 14.7211 29.1628 14.7211 28.4677 15.4162C27.7725 16.1114 27.7725 17.2385 28.4677 17.9336C29.1628 18.6288 30.2899 18.6288 30.985 17.9336Z" fill="white"/>
<path d="M10.0594 17.5235C10.5281 17.0549 10.5281 16.295 10.0594 15.8263C9.59076 15.3577 8.83091 15.3577 8.36225 15.8263C7.89359 16.295 7.8936 17.0549 8.36225 17.5235C8.83091 17.9922 9.59076 17.9922 10.0594 17.5235Z" fill="white"/>
<path d="M4.15895 17.0838C4.38477 16.1269 3.7922 15.1682 2.8354 14.9424C1.87859 14.7166 0.919878 15.3092 0.694051 16.266C0.468225 17.2228 1.0608 18.1815 2.01761 18.4073C2.97441 18.6331 3.93312 18.0406 4.15895 17.0838Z" fill="white"/>
<path d="M17.2616 10.0029C17.3678 9.34863 16.9236 8.73219 16.2693 8.626C15.6151 8.5198 14.9987 8.96406 14.8925 9.61829C14.7863 10.2725 15.2305 10.8889 15.8848 10.9951C16.539 11.1013 17.1554 10.6571 17.2616 10.0029Z" fill="white"/>
<path d="M16.7569 4.67016C17.6652 4.29395 18.0965 3.25268 17.7203 2.34442C17.3441 1.43616 16.3028 1.00485 15.3946 1.38106C14.4863 1.75727 14.055 2.79855 14.4312 3.70681C14.8074 4.61507 15.8487 5.04638 16.7569 4.67016Z" fill="white"/>
<path d="M22.6108 19.8509C21.9381 19.1783 20.9616 18.9939 20.1227 19.2977C19.8103 19.4105 19.4625 19.3493 19.2274 19.1152L18.6952 18.583C18.4544 18.3422 18.3942 17.982 18.5223 17.6667C18.9341 16.6501 18.6876 15.428 17.7789 14.6579C16.8101 13.8372 15.3444 13.8372 14.3765 14.6579C13.5299 15.3764 13.2576 16.4857 13.5586 17.4575C13.7048 17.9285 13.6035 18.4397 13.2547 18.7884L13.1057 18.9375C12.7789 19.2643 12.3021 19.3655 11.8569 19.2423C11.06 19.0225 10.1705 19.2251 9.54464 19.8509C8.94651 20.4491 8.7344 21.288 8.9083 22.0562C9.03155 22.5989 8.87581 23.1674 8.48311 23.561C8.08945 23.9547 7.5219 24.1487 6.9811 24.0187C6.13837 23.8171 5.20774 24.0818 4.59815 24.8127C3.88728 25.6659 3.87294 26.9377 4.56757 27.8043C5.46859 28.9298 7.11678 28.9977 8.10761 28.0069C8.70573 27.4087 8.91785 26.5708 8.74395 25.8016C8.6207 25.2589 8.77644 24.6904 9.16914 24.2977L9.19494 24.2719C9.58859 23.8783 10.1561 23.7235 10.6989 23.8467C11.4671 24.0206 12.306 23.8095 12.9041 23.2104C13.5309 22.5836 13.7334 21.695 13.5127 20.8981C13.3895 20.4529 13.4908 19.9761 13.8175 19.6493L14.1787 19.2882C14.4109 19.056 14.7606 18.9862 15.0644 19.1123L15.074 19.1162C15.3778 19.2423 15.5766 19.5394 15.5766 19.8691V21.0978C15.5766 21.7074 15.3539 22.2845 15.0014 22.7814C14.8494 22.9963 14.7596 23.2581 14.7596 23.5419C14.7596 23.8257 14.8494 24.0875 15.0014 24.3025C15.3539 24.8003 15.5766 25.3764 15.5766 25.986V26.3644C15.5766 27.2023 15.1781 27.9744 14.5408 28.5171C13.9771 28.9967 13.6408 29.7344 13.7143 30.5475C13.8147 31.6529 14.7042 32.5626 15.8078 32.6849C17.241 32.8435 18.4535 31.7256 18.4535 30.3248C18.4535 29.5968 18.1258 28.9451 17.6098 28.5104C16.9725 27.9725 16.5817 27.1985 16.5817 26.3644V25.9851C16.5817 25.3755 16.8043 24.7984 17.1569 24.3015C17.3088 24.0865 17.3986 23.8247 17.3986 23.541C17.3986 23.2572 17.3088 22.9954 17.1569 22.7804C16.8043 22.2826 16.5817 21.7065 16.5817 21.0969V19.8681C16.5817 19.5385 16.7795 19.2413 17.0843 19.1152C17.3939 18.9862 17.7503 19.0569 17.9872 19.2939L18.5185 19.8251C18.7535 20.0602 18.8147 20.408 18.701 20.7204C18.3971 21.5593 18.5806 22.5358 19.2542 23.2085C19.8523 23.8066 20.6912 24.0187 21.4594 23.8448C22.0021 23.7216 22.5706 23.8773 22.9643 24.27C23.3579 24.6637 23.5519 25.2312 23.422 25.772C23.2203 26.6147 23.4841 27.5454 24.216 28.155C25.0692 28.8658 26.3409 28.8802 27.2075 28.1855C28.3331 27.2845 28.4009 25.6363 27.4101 24.6455C26.812 24.0474 25.974 23.8353 25.2049 24.0092C24.6622 24.1324 24.0937 23.9767 23.701 23.584L23.6752 23.5582C23.2815 23.1645 23.1267 22.597 23.25 22.0543C23.4239 21.286 23.2127 20.4471 22.6136 19.849L22.6108 19.8509Z" fill="white"/>
</svg>
