<svg width="24" height="24" viewBox="0 0 24 24" fill="none" xmlns="http://www.w3.org/2000/svg">
<mask id="mask0_560_4968" style="mask-type:alpha" maskUnits="userSpaceOnUse" x="0" y="0" width="24" height="24">
<rect width="24" height="24" fill="#D9D9D9"/>
</mask>
<g mask="url(#mask0_560_4968)">
<path d="M6.8998 21.8C6.1498 21.8 5.52064 21.5459 5.0123 21.0375C4.50397 20.5292 4.2498 19.9 4.2498 19.15V5.90005C3.88314 5.90005 3.57064 5.77088 3.3123 5.51255C3.05397 5.25422 2.9248 4.94172 2.9248 4.57505C2.9248 4.20838 3.05397 3.89588 3.3123 3.63755C3.57064 3.37922 3.88314 3.25005 4.2498 3.25005H8.9498C8.9498 2.91672 9.0648 2.63338 9.2948 2.40005C9.5248 2.16672 9.8098 2.05005 10.1498 2.05005H13.8998C14.2398 2.05005 14.5248 2.16505 14.7548 2.39505C14.9848 2.62505 15.0998 2.91005 15.0998 3.25005H19.7998C20.1665 3.25005 20.479 3.37922 20.7373 3.63755C20.9956 3.89588 21.1248 4.20838 21.1248 4.57505C21.1248 4.94172 20.9956 5.25422 20.7373 5.51255C20.479 5.77088 20.1665 5.90005 19.7998 5.90005V19.15C19.7998 19.9 19.5456 20.5292 19.0373 21.0375C18.529 21.5459 17.8998 21.8 17.1498 21.8H6.8998ZM17.1498 5.90005H6.8998V19.15H17.1498V5.90005ZM9.7998 17.125C10.1665 17.125 10.479 16.9959 10.7373 16.7375C10.9956 16.4792 11.1248 16.1667 11.1248 15.8V9.25005C11.1248 8.88338 10.9956 8.57088 10.7373 8.31255C10.479 8.05422 10.1665 7.92505 9.7998 7.92505C9.43314 7.92505 9.12064 8.05422 8.8623 8.31255C8.60397 8.57088 8.4748 8.88338 8.4748 9.25005V15.8C8.4748 16.1667 8.60397 16.4792 8.8623 16.7375C9.12064 16.9959 9.43314 17.125 9.7998 17.125ZM14.2498 17.125C14.6165 17.125 14.929 16.9959 15.1873 16.7375C15.4456 16.4792 15.5748 16.1667 15.5748 15.8V9.25005C15.5748 8.88338 15.4456 8.57088 15.1873 8.31255C14.929 8.05422 14.6165 7.92505 14.2498 7.92505C13.8831 7.92505 13.5706 8.05422 13.3123 8.31255C13.054 8.57088 12.9248 8.88338 12.9248 9.25005V15.8C12.9248 16.1667 13.054 16.4792 13.3123 16.7375C13.5706 16.9959 13.8831 17.125 14.2498 17.125Z" fill="white"/>
</g>
</svg>
