<svg width="24" height="25" viewBox="0 0 24 25" fill="none" xmlns="http://www.w3.org/2000/svg">
<mask id="mask0_522_5052" style="mask-type:alpha" maskUnits="userSpaceOnUse" x="0" y="0" width="24" height="25">
<rect y="0.699951" width="24" height="24" fill="#D9D9D9"/>
</mask>
<g mask="url(#mask0_522_5052)">
<path d="M6.8998 22.5C6.1498 22.5 5.52064 22.2458 5.0123 21.7375C4.50397 21.2291 4.2498 20.6 4.2498 19.85V6.59995C3.88314 6.59995 3.57064 6.47079 3.3123 6.21245C3.05397 5.95412 2.9248 5.64162 2.9248 5.27495C2.9248 4.90829 3.05397 4.59579 3.3123 4.33745C3.57064 4.07912 3.88314 3.94995 4.2498 3.94995H8.9498C8.9498 3.61662 9.0648 3.33329 9.2948 3.09995C9.5248 2.86662 9.8098 2.74995 10.1498 2.74995H13.8998C14.2398 2.74995 14.5248 2.86495 14.7548 3.09495C14.9848 3.32495 15.0998 3.60995 15.0998 3.94995H19.7998C20.1665 3.94995 20.479 4.07912 20.7373 4.33745C20.9956 4.59579 21.1248 4.90829 21.1248 5.27495C21.1248 5.64162 20.9956 5.95412 20.7373 6.21245C20.479 6.47079 20.1665 6.59995 19.7998 6.59995V19.85C19.7998 20.6 19.5456 21.2291 19.0373 21.7375C18.529 22.2458 17.8998 22.5 17.1498 22.5H6.8998ZM17.1498 6.59995H6.8998V19.85H17.1498V6.59995ZM9.7998 17.825C10.1665 17.825 10.479 17.6958 10.7373 17.4375C10.9956 17.1791 11.1248 16.8666 11.1248 16.5V9.94995C11.1248 9.58329 10.9956 9.27079 10.7373 9.01245C10.479 8.75412 10.1665 8.62495 9.7998 8.62495C9.43314 8.62495 9.12064 8.75412 8.8623 9.01245C8.60397 9.27079 8.4748 9.58329 8.4748 9.94995V16.5C8.4748 16.8666 8.60397 17.1791 8.8623 17.4375C9.12064 17.6958 9.43314 17.825 9.7998 17.825ZM14.2498 17.825C14.6165 17.825 14.929 17.6958 15.1873 17.4375C15.4456 17.1791 15.5748 16.8666 15.5748 16.5V9.94995C15.5748 9.58329 15.4456 9.27079 15.1873 9.01245C14.929 8.75412 14.6165 8.62495 14.2498 8.62495C13.8831 8.62495 13.5706 8.75412 13.3123 9.01245C13.054 9.27079 12.9248 9.58329 12.9248 9.94995V16.5C12.9248 16.8666 13.054 17.1791 13.3123 17.4375C13.5706 17.6958 13.8831 17.825 14.2498 17.825Z" fill="#CB3535"/>
</g>
</svg>
