<svg width="15" height="16" viewBox="0 0 15 16" fill="none" xmlns="http://www.w3.org/2000/svg">
<path d="M7.1501 9.89149L2.3751 14.6915C2.10843 14.9582 1.79176 15.0873 1.4251 15.079C1.05843 15.0707 0.741764 14.9332 0.475098 14.6665C0.225098 14.3998 0.104264 14.0915 0.112598 13.7415C0.120931 13.3915 0.250098 13.0832 0.500098 12.8165L5.2501 8.04149L0.475098 3.21649C0.225098 2.94983 0.100098 2.64149 0.100098 2.29149C0.100098 1.94149 0.225098 1.63316 0.475098 1.36649C0.741764 1.09983 1.05843 0.962325 1.4251 0.953992C1.79176 0.945659 2.10843 1.07483 2.3751 1.34149L7.1501 6.14149L11.8751 1.34149C12.1418 1.07483 12.4584 0.945659 12.8251 0.953992C13.1918 0.962325 13.5084 1.09983 13.7751 1.36649C14.0251 1.63316 14.1459 1.94149 14.1376 2.29149C14.1293 2.64149 14.0001 2.94983 13.7501 3.21649L9.0001 8.04149L13.7501 12.8165C14.0001 13.0665 14.1293 13.3707 14.1376 13.729C14.1459 14.0873 14.0251 14.3998 13.7751 14.6665C13.5084 14.9332 13.1918 15.0707 12.8251 15.079C12.4584 15.0873 12.1418 14.9582 11.8751 14.6915L7.1501 9.89149Z" fill="#454343"/>
</svg>
