<svg width="98" height="50" viewBox="0 0 98 50" fill="none" xmlns="http://www.w3.org/2000/svg">
<path fill-rule="evenodd" clip-rule="evenodd" d="M10.9579 9.09699C10.9579 4.07286 15.0308 0 20.0549 0H63.4724C68.4965 0 72.5694 4.07286 72.5694 9.09699C72.5694 12.1737 71.042 14.8936 68.7041 16.54H88.9026C93.47 16.54 97.1726 20.2426 97.1726 24.81C97.1726 29.3774 93.47 33.08 88.9026 33.08H72.2188C74.5567 34.7263 76.0841 37.4463 76.0841 40.523C76.0841 45.5471 72.0112 49.62 66.9871 49.62H45.4851C40.461 49.62 36.3881 45.5471 36.3881 40.523C36.3881 37.4463 37.9155 34.7263 40.2534 33.08H9.09713C4.52974 33.08 0.827148 29.3774 0.827148 24.81C0.827148 20.2426 4.52975 16.54 9.09714 16.54H14.8232C12.4853 14.8936 10.9579 12.1737 10.9579 9.09699Z" fill="white"/>
</svg>
