<svg width="97" height="34" viewBox="0 0 97 34" fill="none" xmlns="http://www.w3.org/2000/svg">
<path d="M8.92429 0.619965C4.3569 0.619965 0.654297 4.32257 0.654297 8.88996C0.654297 13.4573 4.3569 17.16 8.92429 17.16H19.9285C20.534 17.16 20.8278 18.0037 20.4181 18.4496C18.9298 20.0692 18.0213 22.23 18.0213 24.6029C18.0213 29.6271 22.0941 33.6999 27.1183 33.6999H70.5357C75.5599 33.6999 79.6327 29.6271 79.6327 24.6029C79.6327 22.23 78.7242 20.0692 77.2359 18.4496C76.8262 18.0037 77.12 17.16 77.7255 17.16H88.7297C93.2971 17.16 96.9997 13.4573 96.9997 8.88996C96.9997 4.32257 93.2971 0.619965 88.7297 0.619965H8.92429Z" fill="white"/>
</svg>
