<svg width="24" height="25" viewBox="0 0 24 25" fill="none" xmlns="http://www.w3.org/2000/svg">
<mask id="mask0_434_3378" style="mask-type:alpha" maskUnits="userSpaceOnUse" x="0" y="0" width="24" height="25">
<rect y="0.699951" width="24" height="24" fill="#D9D9D9"/>
</mask>
<g mask="url(#mask0_434_3378)">
<path d="M2.35022 16.9C2.01689 16.2 1.77522 15.475 1.62522 14.725C1.47522 13.975 1.40022 13.2166 1.40022 12.45C1.40022 10.956 1.68506 9.55196 2.25472 8.23796C2.82439 6.92396 3.59747 5.78096 4.57397 4.80896C5.55047 3.83696 6.69872 3.06746 8.01872 2.50046C9.33889 1.93346 10.7494 1.64996 12.2502 1.64996C13.7442 1.64996 15.1482 1.93346 16.4622 2.50046C17.7762 3.06746 18.9192 3.83696 19.8912 4.80896C20.8632 5.78096 21.6327 6.92396 22.1997 8.23796C22.7667 9.55196 23.0502 10.956 23.0502 12.45C23.0502 13.9508 22.7667 15.3613 22.1997 16.6815C21.6327 18.0015 20.8632 19.1497 19.8912 20.1262C18.9192 21.1027 17.7762 21.8758 16.4622 22.4455C15.1482 23.0151 13.7442 23.3 12.2502 23.3C11.4836 23.3 10.7252 23.225 9.97522 23.075C9.22522 22.925 8.50022 22.6833 7.80022 22.35L2.42522 23.925C1.92522 24.075 1.48772 23.9625 1.11272 23.5875C0.737723 23.2125 0.625223 22.775 0.775223 22.275L2.35022 16.9ZM4.00022 20.7L7.29047 19.7047C7.53031 19.6349 7.77106 19.6083 8.01272 19.625C8.25439 19.6416 8.48356 19.7 8.70022 19.8C9.26689 20.0666 9.84672 20.275 10.4397 20.425C11.0329 20.575 11.6345 20.65 12.2445 20.65C14.515 20.65 16.4419 19.8541 18.0252 18.2625C19.6086 16.6708 20.4002 14.7361 20.4002 12.4585C20.4002 10.181 19.6099 8.2518 18.0292 6.67096C16.4484 5.0903 14.5192 4.29996 12.2417 4.29996C9.96406 4.29996 8.02939 5.09021 6.43772 6.67071C4.84606 8.25121 4.05022 10.18 4.05022 12.4572C4.05022 13.069 4.12031 13.6742 4.26047 14.2727C4.40064 14.8714 4.61089 15.4443 4.89122 15.9915C5.01389 16.2138 5.08356 16.4458 5.10022 16.6875C5.11689 16.9291 5.08356 17.1666 5.00022 17.4L4.00022 20.7ZM10.9002 13.8V15.525C10.9002 15.8916 11.0294 16.2041 11.2877 16.4625C11.5461 16.7208 11.8586 16.85 12.2252 16.85C12.5919 16.85 12.9044 16.7208 13.1627 16.4625C13.4211 16.2041 13.5502 15.8916 13.5502 15.525V13.8H15.2752C15.6419 13.8 15.9544 13.6708 16.2127 13.4125C16.4711 13.1541 16.6002 12.8416 16.6002 12.475C16.6002 12.1083 16.4711 11.7958 16.2127 11.5375C15.9544 11.2791 15.6419 11.15 15.2752 11.15H13.5502V9.42496C13.5502 9.0583 13.4211 8.7458 13.1627 8.48746C12.9044 8.22913 12.5919 8.09996 12.2252 8.09996C11.8586 8.09996 11.5461 8.22913 11.2877 8.48746C11.0294 8.7458 10.9002 9.0583 10.9002 9.42496V11.15H9.17522C8.80856 11.15 8.49606 11.2791 8.23772 11.5375C7.97939 11.7958 7.85022 12.1083 7.85022 12.475C7.85022 12.8416 7.97939 13.1541 8.23772 13.4125C8.49606 13.6708 8.80856 13.8 9.17522 13.8H10.9002Z" fill="#454343"/>
</g>
</svg>
