<svg width="117" height="40" viewBox="0 0 117 40" fill="none" xmlns="http://www.w3.org/2000/svg">
<path d="M10 0C4.47717 0 0 4.47717 0 10C0 15.5228 4.47717 20 10 20H24.4111C24.8016 20 24.9767 20.5247 24.6852 20.7845C22.424 22.7991 21 25.7333 21 29C21 35.0751 25.9249 40 32 40H93.75V28C93.75 25.1595 92.5657 22.5956 90.6639 20.7752C90.3863 20.5095 90.5651 20 90.9493 20H106.5C112.023 20 116.5 15.5228 116.5 10C116.5 4.47717 112.023 0 106.5 0H10Z" fill="#81C4FF"/>
<path d="M107.092 15H101.697C101.753 13.7003 101.795 12.4704 101.809 10.975C101.809 10.3182 101.851 9.59146 101.893 8.8787L101.795 8.85075C101.473 9.56351 101.124 10.2902 100.761 10.8493L97.9236 15H94.9468L91.8163 10.416C91.4669 9.85699 91.1175 9.13026 90.7961 8.44546L90.6843 8.45943C90.7402 9.15821 90.7961 9.85699 90.8101 10.5977C90.824 12.2608 90.852 13.6304 90.9219 15H86.1143C86.1981 13.4907 86.2261 11.9673 86.2261 9.74519C86.2261 7.45319 86.1981 5.88792 86.1422 4.51831H93.6611C94.2201 5.56648 95.0307 6.95007 96.0649 8.69702C96.3584 9.21412 96.6798 9.82904 97.0013 10.4579H97.0152C97.3227 9.82904 97.6302 9.21412 97.9097 8.69702C98.874 7.03392 99.7684 5.53853 100.313 4.51831H107.064C107.022 5.88792 106.98 7.45319 106.98 9.74519C106.98 11.9673 106.994 13.4907 107.092 15Z" fill="black"/>
<path d="M74.4672 10.6536C75.0122 10.6536 75.725 10.6536 76.4517 10.6396C76.0884 9.80109 75.6831 8.9346 75.3057 8.17992C74.9955 7.60907 74.7624 7.09331 74.5672 6.65222C74.5393 6.58902 74.4499 6.58855 74.4215 6.65153C74.2268 7.08245 73.9956 7.59981 73.6985 8.1939C73.3352 8.94858 72.9438 9.80109 72.5525 10.6396C73.2653 10.6536 73.9221 10.6536 74.4672 10.6536ZM84.8371 15H78.0729C78.003 14.6227 77.7794 13.9658 77.4859 13.1552C76.3679 13.1552 75.2917 13.1552 74.4532 13.1552C73.6566 13.1552 72.5665 13.1552 71.4624 13.1552C71.141 13.9379 70.8894 14.5947 70.7776 15H64.5864C66.2355 12.2748 69.3102 6.19538 69.967 4.51831H79.3167C80.0155 6.20936 83.1181 12.2468 84.8371 15Z" fill="black"/>
<path d="M48.1714 4.51831H63.4607C63.4467 4.85373 63.4327 5.3848 63.4327 5.84599C63.4327 6.32116 63.4327 6.86621 63.4607 7.17368C60.7075 7.1597 56.4589 7.14573 53.9713 7.14573V8.50136C56.8083 8.50136 61.0848 8.50136 63.307 8.44546C63.279 9.01846 63.265 10.1645 63.279 10.7794C61.1128 10.7514 56.7804 10.7095 53.9713 10.7095V12.1071C56.4869 12.1071 60.9591 12.0931 63.4607 12.0791C63.4327 12.4425 63.4327 13.0295 63.4327 13.5745C63.4327 14.0497 63.4327 14.6227 63.4607 15H48.1714C48.2413 13.5466 48.2552 11.9953 48.2552 9.75916C48.2552 7.53704 48.2413 5.9578 48.1714 4.51831Z" fill="black"/>
<path d="M37.953 9.38182C39.658 9.38182 40.273 9.03243 40.273 8.27775C40.273 7.50909 39.658 7.24356 37.967 7.24356C37.1843 7.24356 35.1439 7.25753 33.9839 7.29946C33.9839 7.98426 33.9839 8.68304 33.9979 9.35387C34.8644 9.38182 36.3598 9.38182 37.953 9.38182ZM41.7963 10.4859V10.5837C44.27 10.8213 45.3741 11.2965 45.7514 12.9596C45.9471 13.7562 46.1287 14.5668 46.3104 15H41.5587C40.6363 15 40.3987 14.8044 40.1332 13.5046C39.8956 12.2189 39.5043 11.9394 37.5617 11.9394H34.0398C34.0818 13.1972 34.1377 14.2733 34.2495 15H28.4775C28.5195 13.4767 28.5614 12.0092 28.5614 9.75916C28.5614 7.53704 28.5334 6.02768 28.4775 4.51831H39.7698C43.7529 4.51831 45.7234 5.34287 45.7234 7.56499C45.7234 9.38182 44.5914 10.2064 41.7963 10.4859Z" fill="black"/>
<path d="M18.432 11.8276C20.1649 11.8276 21.0734 11.1707 21.0734 9.57748C21.0734 8.04016 20.2488 7.46716 18.432 7.46716C17.1881 7.46716 16.0282 7.48114 14.8961 7.52307C14.8822 8.27775 14.8682 9.06038 14.8682 9.80109C14.8682 10.5837 14.8682 11.2126 14.8682 11.7577C16.112 11.8695 17.0903 11.8276 18.432 11.8276ZM9.25 4.51831H19.1168C24.8608 4.51831 26.7754 6.02768 26.7754 9.46568C26.7754 13.3509 25.0145 15 19.0469 15H9.25C9.29193 13.5186 9.29193 11.9953 9.29193 9.77314C9.29193 7.55102 9.29193 5.9578 9.25 4.51831Z" fill="black"/>
<path d="M82.3072 23.5183H87.1567C87.1008 24.7761 87.0869 26.5231 87.0869 28.7452C87.0869 31.0651 87.0869 32.6304 87.1288 34H81.0634C80.3786 33.1056 77.29 30.8695 75.529 29.4999C75.0259 28.9828 74.5507 28.4797 74.1454 27.9765L74.1175 27.9905C74.1874 28.829 74.2013 29.6117 74.2293 30.4921C74.2573 32.2391 74.2712 33.455 74.2992 34H69.4077C69.4077 32.5745 69.4496 30.9953 69.4496 28.7592C69.4496 26.537 69.4636 24.9718 69.4077 23.5183H75.8924C76.2837 24.1193 79.8056 26.9004 81.3569 28.1023C81.7482 28.4936 82.1535 28.857 82.4749 29.2763L82.5029 29.2623C82.447 28.5216 82.433 27.8228 82.419 27.2917C82.405 25.6706 82.3631 24.1891 82.3072 23.5183Z" fill="black"/>
<path d="M68.2089 28.6473C68.2089 32.2391 65.7073 34.3913 58.44 34.3913C51.1727 34.3913 48.7549 32.2391 48.7549 28.6473C48.7549 24.9717 51.536 23.127 58.44 23.127C65.3579 23.127 68.2089 24.9717 68.2089 28.6473ZM58.454 31.0092C61.3329 31.0092 62.3112 30.1707 62.3112 28.6473C62.3112 27.124 61.305 26.3553 58.454 26.3553C55.589 26.3553 54.5967 27.124 54.5967 28.6473C54.5967 30.1707 55.575 31.0092 58.454 31.0092Z" fill="black"/>
<path d="M42.0951 27.9625V27.7669C42.0951 26.8305 41.033 26.4392 38.5733 26.4392C35.89 26.5091 34.8418 26.9982 34.8418 28.5914C34.8418 30.0169 35.9738 30.7996 38.6851 30.7996C41.2426 30.7996 42.0951 30.3244 42.0951 29.4719V29.1784C42.9057 29.2064 43.9958 29.2064 44.9322 29.2064C45.8686 29.2064 46.8049 29.2064 47.7273 29.1784C47.7413 29.416 47.7553 29.6396 47.7553 29.8492C47.7553 32.854 45.5611 34.2516 38.5314 34.2516C31.5296 34.2516 29 32.6164 29 28.5775C29 24.5665 32.2703 23.2667 38.5034 23.2667C44.6527 23.2667 47.7133 23.9515 47.7133 27.0821C47.7133 27.3616 47.6854 27.6551 47.6574 27.9625C46.735 27.9346 45.8127 27.9346 44.9042 27.9346C43.9819 27.9346 42.8918 27.9346 42.0951 27.9625Z" fill="black"/>
</svg>
