<svg width="140" height="49" viewBox="0 0 140 49" fill="none" xmlns="http://www.w3.org/2000/svg">
<path d="M12 0.699951C5.37261 0.699951 0 6.07256 0 12.7C0 19.3273 5.37261 24.7 12 24.7H28.9145C29.5003 24.7 29.769 25.4953 29.343 25.8973C26.7921 28.3041 25.2 31.7161 25.2 35.4999C25.2 42.79 31.1098 48.7 38.4 48.7H112.5V34.2999C112.5 31.0206 111.185 28.0486 109.053 25.8826C108.648 25.4718 108.922 24.7 109.499 24.7H127.8C134.427 24.7 139.8 19.3273 139.8 12.7C139.8 6.07256 134.427 0.699951 127.8 0.699951H12Z" fill="white"/>
<path d="M128.51 18.7H122.037C122.104 17.1403 122.154 15.6645 122.171 13.87C122.171 13.0818 122.221 12.2097 122.272 11.3544L122.154 11.3209C121.768 12.1762 121.349 13.0483 120.913 13.7191L117.509 18.7H113.937L110.18 13.1992C109.761 12.5284 109.341 11.6563 108.956 10.8345L108.821 10.8513C108.889 11.6898 108.956 12.5284 108.972 13.4172C108.989 15.4129 109.023 17.0565 109.107 18.7H103.337C103.438 16.8888 103.472 15.0607 103.472 12.3942C103.472 9.6438 103.438 7.76548 103.371 6.12195H112.394C113.064 7.37975 114.037 9.04006 115.278 11.1364C115.63 11.7569 116.016 12.4948 116.402 13.2495H116.419C116.788 12.4948 117.156 11.7569 117.492 11.1364C118.649 9.14068 119.722 7.34621 120.376 6.12195H128.477C128.426 7.76548 128.376 9.6438 128.376 12.3942C128.376 15.0607 128.393 16.8888 128.51 18.7Z" fill="black"/>
<path d="M89.3608 13.4843C90.0149 13.4843 90.8702 13.4843 91.7423 13.4675C91.3062 12.4613 90.8199 11.4215 90.3671 10.5159C90.0062 9.85188 89.7323 9.25001 89.5026 8.73164C89.4606 8.63687 89.3266 8.63616 89.2839 8.73064C89.055 9.23785 88.7837 9.84205 88.4384 10.5327C88.0024 11.4383 87.5328 12.4613 87.0632 13.4675C87.9185 13.4843 88.7068 13.4843 89.3608 13.4843ZM101.805 18.7H93.6877C93.6038 18.2472 93.3355 17.459 92.9833 16.4863C91.6416 16.4863 90.3503 16.4863 89.344 16.4863C88.3881 16.4863 87.08 16.4863 85.7551 16.4863C85.3694 17.4254 85.0675 18.2136 84.9333 18.7H77.5039C79.4829 15.4297 83.1724 8.13444 83.9606 6.12195H95.1803C96.0188 8.15121 99.7419 15.3962 101.805 18.7Z" fill="black"/>
<path d="M57.8057 6.12195H76.1528C76.1361 6.52445 76.1193 7.16173 76.1193 7.71517C76.1193 8.28537 76.1193 8.93943 76.1528 9.30839C72.849 9.29162 67.7507 9.27485 64.7655 9.27485V10.9016C68.17 10.9016 73.3018 10.9016 75.9684 10.8345C75.9348 11.5221 75.9181 12.8973 75.9348 13.6352C73.3354 13.6017 68.1364 13.5514 64.7655 13.5514V15.2285C67.7842 15.2285 73.1509 15.2117 76.1528 15.1949C76.1193 15.631 76.1193 16.3353 76.1193 16.9894C76.1193 17.5596 76.1193 18.2472 76.1528 18.7H57.8057C57.8895 16.9558 57.9063 15.0943 57.9063 12.411C57.9063 9.74443 57.8895 7.84933 57.8057 6.12195Z" fill="black"/>
<path d="M45.5434 11.9582C47.5894 11.9582 48.3274 11.5389 48.3274 10.6333C48.3274 9.71089 47.5894 9.39224 45.5602 9.39224C44.621 9.39224 42.1725 9.40901 40.7805 9.45932C40.7805 10.2811 40.7805 11.1196 40.7973 11.9246C41.8371 11.9582 43.6315 11.9582 45.5434 11.9582ZM50.1554 13.2831V13.4004C53.1238 13.6855 54.4487 14.2558 54.9015 16.2515C55.1363 17.2074 55.3543 18.1801 55.5723 18.7H49.8703C48.7634 18.7 48.4783 18.4652 48.1596 16.9055C47.8745 15.3626 47.405 15.0272 45.0738 15.0272H40.8476C40.8979 16.5366 40.965 17.8279 41.0992 18.7H34.1729C34.2232 16.872 34.2735 15.1111 34.2735 12.411C34.2735 9.74443 34.2399 7.93319 34.1729 6.12195H47.7236C52.5033 6.12195 54.8679 7.11142 54.8679 9.77797C54.8679 11.9582 53.5095 12.9476 50.1554 13.2831Z" fill="black"/>
<path d="M22.1185 14.893C24.198 14.893 25.2881 14.1048 25.2881 12.193C25.2881 10.3482 24.2987 9.66057 22.1185 9.66057C20.6259 9.66057 19.2339 9.67734 17.8755 9.72766C17.8587 10.6333 17.8419 11.5724 17.8419 12.4613C17.8419 13.4004 17.8419 14.1551 17.8419 14.8092C19.3345 14.9434 20.5085 14.893 22.1185 14.893ZM11.1001 6.12195H22.9402C29.833 6.12195 32.1306 7.93319 32.1306 12.0588C32.1306 16.7211 30.0175 18.7 22.8564 18.7H11.1001C11.1504 16.9223 11.1504 15.0943 11.1504 12.4277C11.1504 9.7612 11.1504 7.84933 11.1001 6.12195Z" fill="black"/>
<path d="M98.7689 28.9219H104.588C104.521 30.4312 104.505 32.5276 104.505 35.1941C104.505 37.9781 104.505 39.8564 104.555 41.4999H97.2763C96.4546 40.4266 92.7482 37.7433 90.6351 36.0997C90.0314 35.4792 89.4612 34.8755 88.9748 34.2717L88.9413 34.2885C89.0251 35.2948 89.0419 36.2339 89.0755 37.2905C89.109 39.3868 89.1258 40.8459 89.1593 41.4999H83.2896C83.2896 39.7893 83.3399 37.8942 83.3399 35.2109C83.3399 32.5444 83.3566 30.666 83.2896 28.9219H91.0712C91.5408 29.643 95.767 32.9804 97.6285 34.4227C98.0981 34.8923 98.5845 35.3283 98.9702 35.8314L99.0037 35.8146C98.9366 34.9258 98.9199 34.0873 98.9031 33.45C98.8863 31.5046 98.836 29.7269 98.7689 28.9219Z" fill="black"/>
<path d="M81.8507 35.0767C81.8507 39.3868 78.8488 41.9695 70.128 41.9695C61.4072 41.9695 58.5059 39.3868 58.5059 35.0767C58.5059 30.666 61.8432 28.4523 70.128 28.4523C78.4295 28.4523 81.8507 30.666 81.8507 35.0767ZM70.1447 37.911C73.5995 37.911 74.7735 36.9047 74.7735 35.0767C74.7735 33.2487 73.566 32.3263 70.1447 32.3263C66.7067 32.3263 65.516 33.2487 65.516 35.0767C65.516 36.9047 66.69 37.911 70.1447 37.911Z" fill="black"/>
<path d="M50.514 34.255V34.0202C50.514 32.8965 49.2394 32.427 46.2878 32.427C43.0678 32.5108 41.81 33.0978 41.81 35.0096C41.81 36.7203 43.1684 37.6594 46.4219 37.6594C49.491 37.6594 50.514 37.0892 50.514 36.0662V35.714C51.4867 35.7476 52.7948 35.7476 53.9184 35.7476C55.0421 35.7476 56.1657 35.7476 57.2726 35.714C57.2894 35.9991 57.3061 36.2674 57.3061 36.519C57.3061 40.1247 54.6731 41.8018 46.2374 41.8018C37.8353 41.8018 34.7998 39.8396 34.7998 34.9929C34.7998 30.1797 38.7242 28.62 46.2039 28.62C53.583 28.62 57.2558 29.4418 57.2558 33.1984C57.2558 33.5338 57.2223 33.886 57.1887 34.255C56.0819 34.2214 54.975 34.2214 53.8849 34.2214C52.778 34.2214 51.4699 34.2214 50.514 34.255Z" fill="black"/>
</svg>
