<svg width="119" height="33" viewBox="0 0 119 33" fill="none" xmlns="http://www.w3.org/2000/svg">
<g clip-path="url(#clip0_522_3503)">
<path d="M42.3764 18.9701V17.9335H38.9072V22.8678H40.0859V21.3099H42.0483V20.2733H40.0859V18.9761H42.3703L42.3764 18.9701ZM45.4507 22.9284C46.9574 22.9284 48.0571 21.8555 48.0571 20.4067C48.0571 18.9579 46.9513 17.8668 45.4507 17.8668C43.95 17.8668 42.8199 18.9701 42.8199 20.4067C42.8199 21.8433 43.9318 22.9284 45.4507 22.9284ZM45.4507 21.8433C44.6305 21.8433 44.029 21.219 44.029 20.4128C44.029 19.6065 44.6244 18.964 45.4507 18.964C46.2769 18.964 46.8541 19.5823 46.8541 20.4128C46.8541 21.2432 46.2648 21.8433 45.4507 21.8433ZM51.0888 22.9284C52.4376 22.9284 53.3307 22.1646 53.3307 20.6977V17.9335H52.1521V20.7886C52.1521 21.3341 51.8422 21.8736 51.0888 21.8736C50.3355 21.8736 50.0378 21.3341 50.0378 20.7886V17.9335H48.8591V20.6977C48.8591 22.1646 49.7522 22.9284 51.0888 22.9284ZM57.8571 17.9335V20.8371L55.0866 17.885H54.4304V22.8678H55.5848V19.9642L58.3613 22.9344H59.0175V17.9396H57.8571V17.9335ZM62.1829 17.9335H60.1719V22.8678H62.1829C63.7443 22.8678 64.7833 21.8797 64.7833 20.4006C64.7833 18.9216 63.7443 17.9396 62.1829 17.9396V17.9335ZM62.11 21.8312H61.3505V18.9761H62.11C63.0456 18.9761 63.5803 19.552 63.5803 20.4128C63.5803 21.2735 63.0456 21.8312 62.11 21.8312ZM68.6656 22.8678H69.9172L67.736 17.9335H66.9948L64.7954 22.8678H66.047L66.4055 21.9888H68.3132L68.6656 22.8678ZM67.3593 19.6126L67.9426 21.0007H66.7821L67.3593 19.6126ZM73.8238 17.9335H69.4129V18.9701H71.0229V22.8678H72.2016V18.9701H73.8177V17.9335H73.8238ZM74.4131 22.8678H75.5918V17.9335H74.4131V22.8678ZM79.0792 22.9284C80.5859 22.9284 81.6856 21.8555 81.6856 20.4067C81.6856 18.9579 80.5799 17.8668 79.0792 17.8668C77.5785 17.8668 76.4485 18.9701 76.4485 20.4067C76.4485 21.8433 77.5603 22.9284 79.0792 22.9284ZM79.0792 21.8433C78.259 21.8433 77.6575 21.219 77.6575 20.4128C77.6575 19.6065 78.259 18.964 79.0792 18.964C79.8994 18.964 80.4827 19.5823 80.4827 20.4128C80.4827 21.2432 79.8933 21.8433 79.0792 21.8433ZM85.975 17.9335V20.8371L83.2045 17.885H82.5544V22.8678H83.7088V19.9642L86.4854 22.9344H87.1415V17.9396H85.9811L85.975 17.9335Z" fill="white"/>
<path d="M42.3764 10.5503V9.51374H38.9072V14.448H40.0859V12.8901H42.0483V11.8536H40.0859V10.5564H42.3703L42.3764 10.5503ZM47.1397 13.5387C46.6415 13.5387 46.5443 13.1447 46.1251 12.8659C46.7144 12.5689 47.0607 12.0294 47.0607 11.3444C47.0607 10.2654 46.2466 9.51374 45.0011 9.51374H43.1966V14.448H44.3753V13.1265H44.837C45.3413 13.1447 45.5418 14.5086 46.7934 14.5086C47.1518 14.5086 47.3341 14.448 47.3341 14.448V13.5387C47.2733 13.5448 47.2004 13.5448 47.1397 13.5448V13.5387ZM44.3753 12.1021V10.5382H44.9342C45.5053 10.5382 45.8638 10.8898 45.8638 11.3444C45.8638 11.799 45.4993 12.1021 44.9403 12.1021H44.3753ZM48.2029 14.448H49.3816V9.51374H48.2029V14.448ZM51.7025 13.4175V12.484H53.7256V11.4474H51.7025V10.5564H53.993V9.5198H50.5177V14.4541H54.0294V13.4236H51.7025V13.4175ZM57.0369 9.51374H55.0258V14.448H57.0369C58.5983 14.448 59.6372 13.4599 59.6372 11.9809C59.6372 10.5018 58.5983 9.5198 57.0369 9.5198V9.51374ZM56.97 13.4115H56.2106V10.5564H56.97C57.9057 10.5564 58.4403 11.1322 58.4403 11.993C58.4403 12.8538 57.9057 13.4115 56.97 13.4115ZM64.4552 13.5448C63.957 13.5448 63.8598 13.1508 63.4406 12.872C64.0299 12.5749 64.3762 12.0354 64.3762 11.3505C64.3762 10.2715 63.5621 9.5198 62.3166 9.5198H60.506V14.4541H61.6847V13.1326H62.1465C62.6507 13.1508 62.8512 14.5147 64.1028 14.5147C64.4613 14.5147 64.6435 14.4541 64.6435 14.4541V13.5448C64.5828 13.5509 64.5099 13.5509 64.4491 13.5509L64.4552 13.5448ZM61.6908 12.1082V10.5442H62.2497C62.8208 10.5442 63.1793 10.8958 63.1793 11.3505C63.1793 11.8051 62.8148 12.1082 62.2558 12.1082H61.6908ZM65.5184 14.4541H66.6971V9.5198H65.5184V14.4541ZM70.2088 14.5147C71.0776 14.5147 71.6062 14.2116 71.8553 14.0237L71.3389 13.0902C71.2356 13.1629 70.8528 13.4054 70.2574 13.4054C69.3643 13.4054 68.781 12.8598 68.781 11.9809C68.781 11.1019 69.3643 10.5624 70.2574 10.5624C70.8528 10.5624 71.2356 10.811 71.3389 10.8776L71.8553 9.94413C71.6123 9.75621 71.0533 9.45312 70.2088 9.45312C68.5988 9.45312 67.5598 10.5685 67.5598 11.9809C67.5598 13.3933 68.5988 14.5147 70.2088 14.5147ZM75.9989 9.5198V11.4778H73.763V9.5198H72.5844V14.4541H73.763V12.5143H75.9989V14.4541H77.1775V9.5198H75.9989ZM83.2835 9.5198V12.4234L80.513 9.47131H79.8569V14.4541H81.0112V11.5505L83.7878 14.5208H84.444V9.52587H83.2835V9.5198ZM88.8488 14.4541H90.1003L87.9192 9.5198H87.178L84.9786 14.4541H86.2302L86.5886 13.5751H88.4964L88.8488 14.4541ZM87.5425 11.1989L88.1258 12.5871H86.9653L87.5425 11.1989ZM92.5974 14.5208C93.9462 14.5208 94.8393 13.757 94.8393 12.29V9.52587H93.6607V12.381C93.6607 12.9265 93.3508 13.466 92.5974 13.466C91.844 13.466 91.5463 12.9265 91.5463 12.381V9.52587H90.3677V12.29C90.3677 13.757 91.2608 14.5208 92.5974 14.5208ZM101.298 14.4601L101.164 9.52587H100.441L98.5637 12.6537L96.7228 9.52587H95.9937L95.86 14.4601H97.0205V11.9142L98.2113 13.9813H98.9343L100.137 11.9203V14.4601H101.304H101.298ZM105.672 14.4601H106.924L104.743 9.52587H104.001L101.802 14.4601H103.054L103.412 13.5812H105.32L105.672 14.4601ZM104.366 11.205L104.949 12.5931H103.789L104.366 11.205ZM110.897 9.52587V12.4294L108.127 9.47737H107.471V14.4601H108.625V11.5566L111.401 14.5268H112.058V9.53193H110.897V9.52587ZM116.645 9.52587V12.4294L113.874 9.47737H113.218V14.4601H114.372V11.5566L117.149 14.5268H117.805V9.53193H116.645V9.52587Z" fill="white"/>
<path d="M28.4206 14.448C28.4206 10.3321 26.604 6.64047 23.7363 4.12484V18.5942C23.7363 19.9703 22.4847 20.3037 22.4847 20.3037L5.60666 24.8136C8.02475 26.917 11.1841 28.19 14.6472 28.19C22.2538 28.19 28.4267 22.0373 28.4267 14.4419L28.4206 14.448ZM13.505 20.1339V16.7333L17.5452 15.6543V13.3872L13.505 14.4662V11.6354L18.2136 10.3745V8.10742L11.0686 10.0169V20.7886L13.505 20.14V20.1339ZM23.6816 4.07635C21.2635 1.97292 18.1042 0.699951 14.6411 0.699951C7.03442 0.699951 0.867676 6.85263 0.867676 14.448C0.867676 18.5639 2.68428 22.2555 5.55805 24.7712V10.3018C5.55805 8.92575 6.80963 8.59236 6.80963 8.59236L23.6877 4.08241L23.6816 4.07635Z" fill="white"/>
<path d="M92.33 19.7581V19.449H90.1792V22.8557H90.5255V21.5039H92.1355V21.1887H90.5255V19.7581H92.33ZM93.8185 22.8981C94.4564 22.8981 94.985 22.401 94.985 21.7464C94.985 21.0917 94.4564 20.5886 93.8185 20.5886C93.1806 20.5886 92.652 21.0856 92.652 21.7464C92.652 22.4071 93.1745 22.8981 93.8185 22.8981ZM93.8185 22.5829C93.375 22.5829 92.9983 22.2192 92.9983 21.7464C92.9983 21.2736 93.375 20.9038 93.8185 20.9038C94.262 20.9038 94.6326 21.2675 94.6326 21.7464C94.6326 22.2252 94.2559 22.5829 93.8185 22.5829ZM96.6619 20.5825C96.2427 20.5825 95.9753 20.8189 95.8903 21.0917L95.872 20.6249H95.5683V22.8557H95.9146V21.607C95.9146 21.2857 96.1333 20.9098 96.6072 20.9098C96.6923 20.9098 96.753 20.922 96.8138 20.9402L96.8441 20.5946C96.7955 20.5825 96.7348 20.5825 96.668 20.5825H96.6619ZM100.647 19.7581V19.449H98.5028V22.8557H98.8491V21.5039H100.459V21.1887H98.8491V19.7581H100.654H100.647ZM102.191 20.5825C101.771 20.5825 101.504 20.8189 101.419 21.0917L101.401 20.6249H101.097V22.8557H101.443V21.607C101.443 21.2857 101.662 20.9098 102.136 20.9098C102.221 20.9098 102.282 20.922 102.343 20.9402L102.373 20.5946C102.324 20.5825 102.264 20.5825 102.197 20.5825H102.191ZM104.688 21.6979C104.688 21.0311 104.262 20.5825 103.649 20.5825C102.981 20.5825 102.519 21.0856 102.519 21.7403C102.519 22.395 103.017 22.8981 103.704 22.8981C104.135 22.8981 104.396 22.7466 104.566 22.6071L104.408 22.3525C104.256 22.4738 104.062 22.6011 103.74 22.6011C103.26 22.6011 102.902 22.2919 102.853 21.8434H104.682C104.682 21.8434 104.682 21.7827 104.682 21.6918L104.688 21.6979ZM103.655 20.8795C104.032 20.8795 104.329 21.1463 104.354 21.5706H102.859C102.926 21.1584 103.236 20.8795 103.649 20.8795H103.655ZM107.27 21.6979C107.27 21.0311 106.845 20.5825 106.231 20.5825C105.563 20.5825 105.101 21.0856 105.101 21.7403C105.101 22.395 105.599 22.8981 106.286 22.8981C106.717 22.8981 106.978 22.7466 107.148 22.6071L106.99 22.3525C106.839 22.4738 106.644 22.6011 106.322 22.6011C105.842 22.6011 105.484 22.2919 105.435 21.8434H107.264C107.264 21.8434 107.264 21.7827 107.264 21.6918L107.27 21.6979ZM106.237 20.8795C106.614 20.8795 106.911 21.1463 106.936 21.5706H105.441C105.508 21.1584 105.818 20.8795 106.231 20.8795H106.237ZM109.627 19.3944V21.0129C109.469 20.7825 109.178 20.5825 108.758 20.5825C108.151 20.5825 107.683 21.0796 107.683 21.7403C107.683 22.401 108.157 22.8981 108.764 22.8981C109.184 22.8981 109.475 22.7041 109.645 22.4495L109.658 22.8557H109.961V19.3944H109.627ZM108.825 22.5829C108.388 22.5829 108.029 22.2252 108.029 21.7403C108.029 21.2554 108.388 20.8977 108.825 20.8977C109.305 20.8977 109.633 21.2554 109.633 21.7403C109.633 22.2252 109.305 22.5829 108.825 22.5829ZM111.711 22.8981C112.349 22.8981 112.878 22.401 112.878 21.7464C112.878 21.0917 112.349 20.5886 111.711 20.5886C111.073 20.5886 110.545 21.0856 110.545 21.7464C110.545 22.4071 111.067 22.8981 111.711 22.8981ZM111.711 22.5829C111.268 22.5829 110.891 22.2192 110.891 21.7464C110.891 21.2736 111.268 20.9038 111.711 20.9038C112.155 20.9038 112.525 21.2675 112.525 21.7464C112.525 22.2252 112.149 22.5829 111.711 22.5829ZM116.165 20.5825C115.77 20.5825 115.478 20.831 115.363 21.0978C115.223 20.7765 114.931 20.5825 114.53 20.5825C114.172 20.5825 113.886 20.7886 113.759 21.0432L113.747 20.6249H113.467V22.8557H113.813V21.5342C113.85 21.2311 114.075 20.8977 114.482 20.8977C114.883 20.8977 115.12 21.2008 115.12 21.6615V22.8617H115.466V21.6373C115.466 21.2372 115.727 20.8977 116.14 20.8977C116.553 20.8977 116.772 21.2008 116.772 21.6615V22.8617H117.118V21.6191C117.118 21.0008 116.748 20.5886 116.177 20.5886L116.165 20.5825ZM118.012 22.8981C118.163 22.8981 118.273 22.7829 118.273 22.6314C118.273 22.4798 118.163 22.3647 118.012 22.3647C117.86 22.3647 117.744 22.4859 117.744 22.6314C117.744 22.7769 117.854 22.8981 118.012 22.8981Z" fill="white"/>
<path d="M41.2827 29.2447H38.5791V29.5539H39.7699V32.6514H40.1162V29.5539H41.2827V29.2447ZM42.832 30.3783C42.4493 30.3783 42.1759 30.5662 42.0422 30.7966V29.1902H41.708V32.6514H42.0544V31.3906C42.0544 31.0754 42.2974 30.6935 42.7713 30.6935C43.1844 30.6935 43.4639 30.9966 43.4639 31.4573V32.6514H43.8102V31.4148C43.8102 30.7905 43.4153 30.3783 42.832 30.3783ZM46.3437 30.4207L46.3316 30.8147C46.1736 30.5723 45.8759 30.3722 45.4385 30.3722C44.8309 30.3722 44.3631 30.8693 44.3631 31.53C44.3631 32.1908 44.837 32.6878 45.4445 32.6878C45.8638 32.6878 46.1615 32.4999 46.3316 32.2392L46.3437 32.6393H46.6414V30.4086H46.3437V30.4207ZM45.5053 32.3787C45.0679 32.3787 44.7094 32.021 44.7094 31.5361C44.7094 31.0511 45.0679 30.6935 45.5053 30.6935C45.9853 30.6935 46.3134 31.0511 46.3134 31.5361C46.3134 32.021 45.9853 32.3787 45.5053 32.3787ZM47.5589 29.954C47.7168 29.954 47.8323 29.8449 47.8323 29.6933C47.8323 29.5418 47.7168 29.4327 47.5589 29.4327C47.407 29.4327 47.2915 29.5418 47.2915 29.6933C47.2915 29.8449 47.407 29.954 47.5589 29.954ZM47.3887 32.6514H47.7411V30.4207H47.3948V32.6514H47.3887ZM48.5006 32.6514H48.8469V29.1902H48.5006V32.6514ZM51.423 30.4207L51.4108 30.8147C51.2528 30.5723 50.9551 30.3722 50.5177 30.3722C49.9101 30.3722 49.4423 30.8693 49.4423 31.53C49.4423 32.1908 49.9162 32.6878 50.5238 32.6878C50.943 32.6878 51.2407 32.4999 51.4108 32.2392L51.423 32.6393H51.7267V30.4086H51.423V30.4207ZM50.5845 32.3787C50.1471 32.3787 49.7886 32.021 49.7886 31.5361C49.7886 31.0511 50.1471 30.6935 50.5845 30.6935C51.0645 30.6935 51.3926 31.0511 51.3926 31.5361C51.3926 32.021 51.0645 32.3787 50.5845 32.3787ZM53.5859 30.3783C53.1788 30.3783 52.8872 30.5844 52.7596 30.839L52.7474 30.4207H52.4619V32.6514H52.8082V31.33C52.8446 31.0269 53.0877 30.6935 53.5251 30.6935C53.9383 30.6935 54.2117 30.9905 54.2117 31.4573V32.6514H54.558V31.4148C54.558 30.7905 54.1631 30.3783 53.5798 30.3783H53.5859ZM57.0611 29.1902V30.8087C56.9032 30.5783 56.6115 30.3783 56.1923 30.3783C55.5847 30.3783 55.1169 30.8754 55.1169 31.5361C55.1169 32.1968 55.5908 32.6939 56.1984 32.6939C56.6176 32.6939 56.9092 32.4999 57.0793 32.2453L57.0915 32.6514H57.3892V29.1902H57.055H57.0611ZM56.2591 32.3787C55.8217 32.3787 55.4632 32.021 55.4632 31.5361C55.4632 31.0511 55.8217 30.6935 56.2591 30.6935C56.7391 30.6935 57.0672 31.0511 57.0672 31.5361C57.0672 32.021 56.7391 32.3787 56.2591 32.3787Z" fill="white"/>
</g>
<defs>
<clipPath id="clip0_522_3503">
<rect width="117.417" height="32" fill="white" transform="translate(0.867676 0.699951)"/>
</clipPath>
</defs>
</svg>
