<svg width="24" height="25" viewBox="0 0 24 25" fill="none" xmlns="http://www.w3.org/2000/svg">
<mask id="mask0_497_5046" style="mask-type:alpha" maskUnits="userSpaceOnUse" x="0" y="0" width="24" height="25">
<rect y="0.699951" width="24" height="24" fill="#D9D9D9"/>
</mask>
<g mask="url(#mask0_497_5046)">
<path d="M4.8502 19.8499H6.2752L15.5502 10.5749L14.1252 9.17495L4.8502 18.4499V19.8499ZM3.5252 22.4999C3.15853 22.4999 2.84603 22.3708 2.5877 22.1124C2.32936 21.8541 2.2002 21.5416 2.2002 21.1749V18.4499C2.2002 18.0999 2.26686 17.7624 2.4002 17.4374C2.53353 17.1124 2.7252 16.8249 2.9752 16.5749L16.1502 3.39995C16.3335 3.21661 16.5377 3.08745 16.7627 3.01245C16.9877 2.93745 17.2169 2.89995 17.4502 2.89995C17.6835 2.89995 17.9044 2.93328 18.1127 2.99995C18.321 3.06661 18.5169 3.19161 18.7002 3.37495L21.3252 5.99995C21.5085 6.18328 21.6335 6.38328 21.7002 6.59995C21.7669 6.81661 21.8002 7.04162 21.8002 7.27495C21.8002 7.50828 21.7627 7.73328 21.6877 7.94995C21.6127 8.16662 21.4835 8.36661 21.3002 8.54995L8.1252 21.7249C7.8752 21.9749 7.5877 22.1666 7.2627 22.2999C6.9377 22.4333 6.6002 22.4999 6.2502 22.4999H3.5252ZM14.8502 9.87495L14.1252 9.17495L15.5502 10.5749L14.8502 9.87495Z" fill="#454343"/>
</g>
</svg>
