<svg width="1280" height="164" viewBox="0 0 1280 164" fill="none" xmlns="http://www.w3.org/2000/svg">
<rect width="1280" height="163.7" fill="#BDE6FF"/>
<path d="M168.27 0C163.703 0 160 3.7026 160 8.26999C160 12.8374 163.703 16.54 168.27 16.54H179.274C179.88 16.54 180.173 17.3838 179.764 17.8296C178.276 19.4493 177.367 21.61 177.367 23.983C177.367 29.0071 181.44 33.08 186.464 33.08H229.881C234.906 33.08 238.978 29.0071 238.978 23.983C238.978 21.61 238.07 19.4493 236.582 17.8296C236.172 17.3838 236.466 16.54 237.071 16.54H248.075C252.643 16.54 256.345 12.8374 256.345 8.26999C256.345 3.7026 252.643 0 248.075 0H168.27Z" fill="white"/>
<path fill-rule="evenodd" clip-rule="evenodd" d="M601.958 9.09699C601.958 4.07286 606.031 0 611.055 0H654.472C659.496 0 663.569 4.07286 663.569 9.09699C663.569 12.1737 662.042 14.8936 659.704 16.54H679.903C684.47 16.54 688.173 20.2426 688.173 24.81C688.173 29.3774 684.47 33.08 679.903 33.08H663.219C665.557 34.7263 667.084 37.4463 667.084 40.523C667.084 45.5471 663.011 49.62 657.987 49.62H636.485C631.461 49.62 627.388 45.5471 627.388 40.523C627.388 37.4463 628.916 34.7263 631.253 33.08H600.097C595.53 33.08 591.827 29.3774 591.827 24.81C591.827 20.2426 595.53 16.54 600.097 16.54H605.823C603.485 14.8936 601.958 12.1737 601.958 9.09699Z" fill="white"/>
<path fill-rule="evenodd" clip-rule="evenodd" d="M1100.77 0C1105.8 0 1109.87 4.07286 1109.87 9.09699C1109.87 12.1737 1108.34 14.8936 1106 16.54H1111.73C1116.3 16.54 1120 20.2426 1120 24.81C1120 29.3774 1116.3 33.08 1111.73 33.08H1031.92C1027.36 33.08 1023.65 29.3774 1023.65 24.81C1023.65 20.2426 1027.36 16.54 1031.92 16.54H1052.12C1049.79 14.8936 1048.26 12.1737 1048.26 9.09699C1048.26 4.07286 1052.33 0 1057.35 0H1100.77Z" fill="white"/>
<path d="M171.076 102.088C169.698 102.088 168.437 101.932 167.293 101.62C166.149 101.308 165.174 100.827 164.368 100.177C163.562 99.527 162.938 98.721 162.496 97.759C162.054 96.797 161.833 95.653 161.833 94.327C161.833 93.599 161.885 92.962 161.989 92.416C162.093 91.87 162.223 91.376 162.379 90.934C162.561 90.492 162.756 90.102 162.964 89.764C163.172 89.426 163.367 89.114 163.549 88.828C163.913 88.256 164.225 87.645 164.485 86.995C164.771 86.319 164.914 85.656 164.914 85.006V84.733H161.599V80.014H165.928C167.41 80.014 168.541 80.352 169.321 81.028C170.101 81.678 170.491 82.562 170.491 83.68V83.836C170.491 84.59 170.387 85.357 170.179 86.137C169.971 86.917 169.62 87.801 169.126 88.789C168.762 89.517 168.45 90.193 168.19 90.817C167.956 91.415 167.839 92.195 167.839 93.157V94.21C167.839 95.198 168.112 95.978 168.658 96.55C169.204 97.096 169.971 97.369 170.959 97.369C171.947 97.369 172.714 97.109 173.26 96.589C173.832 96.043 174.118 95.276 174.118 94.288V80.014H179.773V93.43C179.773 96.134 179.006 98.253 177.472 99.787C175.964 101.321 173.832 102.088 171.076 102.088ZM171.538 72.487H173.995V71.161C173.995 70.719 173.904 70.407 173.722 70.225C173.514 70.017 173.111 69.913 172.513 69.913H171.538V65.935H174.775C176.049 65.935 177.037 66.221 177.739 66.793C178.441 67.339 178.792 68.093 178.792 69.055C178.792 69.705 178.597 70.316 178.207 70.888C177.791 71.434 177.232 71.863 176.53 72.175V72.487H183.784V76.465H171.538V72.487ZM193.21 102.088C191.832 102.088 190.558 101.906 189.388 101.542C188.218 101.152 187.204 100.632 186.346 99.982C185.514 99.306 184.851 98.513 184.357 97.603C183.889 96.693 183.655 95.692 183.655 94.6V92.689C183.655 91.623 183.941 90.778 184.513 90.154C185.111 89.53 185.995 89.218 187.165 89.218H191.845V93.469H188.842V94.093C188.842 95.263 189.232 96.16 190.012 96.784C190.792 97.382 191.923 97.681 193.405 97.681C194.731 97.681 195.745 97.239 196.447 96.355C197.175 95.445 197.539 94.21 197.539 92.65V89.062C197.539 87.502 197.123 86.293 196.291 85.435C195.459 84.551 194.289 84.109 192.781 84.109C192.053 84.109 191.364 84.2 190.714 84.382C190.09 84.564 189.518 84.798 188.998 85.084C188.504 85.37 188.062 85.695 187.672 86.059C187.308 86.397 187.022 86.722 186.814 87.034L183.304 83.914C184.11 82.692 185.319 81.665 186.931 80.833C188.569 79.975 190.597 79.546 193.015 79.546C194.653 79.546 196.122 79.806 197.422 80.326C198.748 80.82 199.866 81.561 200.776 82.549C201.686 83.511 202.375 84.694 202.843 86.098C203.337 87.476 203.584 89.049 203.584 90.817C203.584 92.585 203.35 94.171 202.882 95.575C202.414 96.953 201.725 98.136 200.815 99.124C199.931 100.086 198.839 100.827 197.539 101.347C196.265 101.841 194.822 102.088 193.21 102.088ZM215.428 101.62C213.452 101.62 211.996 101.139 211.06 100.177C210.15 99.215 209.695 97.824 209.695 96.004V90.271L206.302 88.906C206.406 87.476 206.744 86.189 207.316 85.045C207.914 83.875 208.694 82.887 209.656 82.081C210.618 81.275 211.749 80.651 213.049 80.209C214.375 79.767 215.818 79.546 217.378 79.546C218.964 79.546 220.381 79.767 221.629 80.209C222.903 80.625 223.982 81.236 224.866 82.042C225.75 82.822 226.426 83.784 226.894 84.928C227.388 86.046 227.635 87.294 227.635 88.672V101.62H221.863V89.413C221.863 87.749 221.434 86.449 220.576 85.513C219.744 84.577 218.509 84.109 216.871 84.109C215.623 84.109 214.544 84.369 213.634 84.889C212.75 85.409 212.1 86.059 211.684 86.839L213.049 87.346C213.985 87.71 214.622 88.126 214.96 88.594C215.298 89.062 215.467 89.764 215.467 90.7V97.135H217.378V101.62H215.428ZM234.641 90.271L231.248 88.906C231.352 87.476 231.69 86.189 232.262 85.045C232.86 83.875 233.64 82.887 234.602 82.081C235.564 81.275 236.695 80.651 237.995 80.209C239.321 79.767 240.764 79.546 242.324 79.546C243.91 79.546 245.327 79.767 246.575 80.209C247.849 80.625 248.928 81.236 249.812 82.042C250.696 82.822 251.372 83.784 251.84 84.928C252.334 86.046 252.581 87.294 252.581 88.672V101.62H246.809V89.413C246.809 87.749 246.38 86.449 245.522 85.513C244.69 84.577 243.455 84.109 241.817 84.109C240.569 84.109 239.49 84.369 238.58 84.889C237.696 85.409 237.046 86.059 236.63 86.839L237.995 87.346C238.931 87.71 239.568 88.126 239.906 88.594C240.244 89.062 240.413 89.764 240.413 90.7V101.62H234.641V90.271ZM263.994 101.62C262.018 101.62 260.562 101.139 259.626 100.177C258.716 99.215 258.261 97.824 258.261 96.004V80.014H264.033V97.135H266.724V101.62H263.994ZM278.041 101.62C276.065 101.62 274.609 101.139 273.673 100.177C272.763 99.215 272.308 97.824 272.308 96.004V90.271L268.915 88.906C269.019 87.476 269.357 86.189 269.929 85.045C270.527 83.875 271.307 82.887 272.269 82.081C273.231 81.275 274.362 80.651 275.662 80.209C276.988 79.767 278.431 79.546 279.991 79.546C281.577 79.546 282.994 79.767 284.242 80.209C285.516 80.625 286.595 81.236 287.479 82.042C288.363 82.822 289.039 83.784 289.507 84.928C290.001 86.046 290.248 87.294 290.248 88.672V101.62H284.476V89.413C284.476 87.749 284.047 86.449 283.189 85.513C282.357 84.577 281.122 84.109 279.484 84.109C278.236 84.109 277.157 84.369 276.247 84.889C275.363 85.409 274.713 86.059 274.297 86.839L275.662 87.346C276.598 87.71 277.235 88.126 277.573 88.594C277.911 89.062 278.08 89.764 278.08 90.7V97.135H279.991V101.62H278.041ZM272.236 72.487H285.028V69.055H290.254V76.699H272.236V72.487ZM303.494 102.088C300.66 102.088 298.437 101.542 296.825 100.45C295.213 99.332 294.407 97.759 294.407 95.731C294.407 94.483 294.771 93.417 295.499 92.533C296.253 91.649 297.215 91.025 298.385 90.661V90.427C297.085 90.089 296.071 89.452 295.343 88.516C294.615 87.58 294.251 86.462 294.251 85.162C294.251 84.33 294.407 83.576 294.719 82.9C295.031 82.198 295.46 81.6 296.006 81.106C296.578 80.612 297.254 80.235 298.034 79.975C298.84 79.689 299.711 79.546 300.647 79.546C301.245 79.546 301.921 79.611 302.675 79.741C303.455 79.845 304.144 80.066 304.742 80.404L303.533 84.538C303.221 84.356 302.909 84.239 302.597 84.187C302.311 84.109 301.999 84.07 301.661 84.07C301.063 84.07 300.53 84.252 300.062 84.616C299.62 84.954 299.399 85.461 299.399 86.137C299.399 87.567 300.309 88.282 302.129 88.282H304.157V92.104H302.129C301.557 92.104 301.089 92.299 300.725 92.689C300.361 93.053 300.179 93.547 300.179 94.171V94.912C300.179 95.796 300.478 96.459 301.076 96.901C301.674 97.317 302.545 97.525 303.689 97.525C304.989 97.525 306.016 97.174 306.77 96.472C307.524 95.744 307.901 94.691 307.901 93.313V80.014H313.673V94.054C313.673 95.276 313.426 96.381 312.932 97.369C312.464 98.357 311.788 99.202 310.904 99.904C310.02 100.606 308.954 101.152 307.706 101.542C306.458 101.906 305.054 102.088 303.494 102.088ZM316.582 86.176H322.198L326.878 97.057H327.073C327.983 97.057 328.698 96.667 329.218 95.887C329.738 95.107 329.998 94.015 329.998 92.611V89.023C329.998 87.619 329.725 86.527 329.179 85.747C328.633 84.967 327.879 84.577 326.917 84.577H325.474V80.014H327.034C328.438 80.014 329.686 80.261 330.778 80.755C331.896 81.249 332.832 81.964 333.586 82.9C334.366 83.81 334.964 84.941 335.38 86.293C335.796 87.619 336.004 89.127 336.004 90.817C336.004 92.507 335.796 94.028 335.38 95.38C334.99 96.706 334.405 97.837 333.625 98.773C332.871 99.683 331.935 100.385 330.817 100.879C329.725 101.373 328.49 101.62 327.112 101.62H323.329L316.582 86.176ZM349.218 102.088C345.968 102.088 343.472 101.152 341.73 99.28C339.988 97.382 339.117 94.535 339.117 90.739C339.117 87.073 339.689 84.291 340.833 82.393C342.003 80.495 343.732 79.546 346.02 79.546C347.294 79.546 348.321 79.884 349.101 80.56C349.907 81.236 350.414 82.198 350.622 83.446H350.895C351.103 82.198 351.662 81.236 352.572 80.56C353.482 79.884 354.639 79.546 356.043 79.546C357.681 79.546 358.994 80.105 359.982 81.223C360.996 82.315 361.503 83.849 361.503 85.825V101.62H355.731V86.644C355.731 85.864 355.588 85.279 355.302 84.889C355.016 84.499 354.626 84.304 354.132 84.304C353.534 84.304 353.105 84.564 352.845 85.084C352.585 85.604 352.403 86.28 352.299 87.112H348.867C348.763 86.28 348.594 85.604 348.36 85.084C348.126 84.564 347.71 84.304 347.112 84.304C346.41 84.304 345.903 84.655 345.591 85.357C345.305 86.059 345.162 87.086 345.162 88.438V92.689C345.162 93.391 345.24 94.028 345.396 94.6C345.552 95.172 345.812 95.666 346.176 96.082C346.566 96.472 347.073 96.784 347.697 97.018C348.321 97.226 349.114 97.33 350.076 97.33C350.518 97.33 350.96 97.278 351.402 97.174L352.065 101.776C351.779 101.88 351.35 101.958 350.778 102.01C350.206 102.062 349.686 102.088 349.218 102.088ZM356.053 68.626H361.279V76.699H356.053V68.626ZM375.299 102.088C373.921 102.088 372.647 101.906 371.477 101.542C370.307 101.152 369.293 100.632 368.435 99.982C367.603 99.306 366.94 98.513 366.446 97.603C365.978 96.693 365.744 95.692 365.744 94.6V92.689C365.744 91.623 366.03 90.778 366.602 90.154C367.2 89.53 368.084 89.218 369.254 89.218H373.934V93.469H370.931V94.093C370.931 95.263 371.321 96.16 372.101 96.784C372.881 97.382 374.012 97.681 375.494 97.681C376.82 97.681 377.834 97.239 378.536 96.355C379.264 95.445 379.628 94.21 379.628 92.65V89.062C379.628 87.502 379.212 86.293 378.38 85.435C377.548 84.551 376.378 84.109 374.87 84.109C374.142 84.109 373.453 84.2 372.803 84.382C372.179 84.564 371.607 84.798 371.087 85.084C370.593 85.37 370.151 85.695 369.761 86.059C369.397 86.397 369.111 86.722 368.903 87.034L365.393 83.914C366.199 82.692 367.408 81.665 369.02 80.833C370.658 79.975 372.686 79.546 375.104 79.546C376.742 79.546 378.211 79.806 379.511 80.326C380.837 80.82 381.955 81.561 382.865 82.549C383.775 83.511 384.464 84.694 384.932 86.098C385.426 87.476 385.673 89.049 385.673 90.817C385.673 92.585 385.439 94.171 384.971 95.575C384.503 96.953 383.814 98.136 382.904 99.124C382.02 100.086 380.928 100.827 379.628 101.347C378.354 101.841 376.911 102.088 375.299 102.088ZM398.024 102.088C395.19 102.088 392.967 101.542 391.355 100.45C389.743 99.332 388.937 97.759 388.937 95.731C388.937 94.483 389.301 93.417 390.029 92.533C390.783 91.649 391.745 91.025 392.915 90.661V90.427C391.615 90.089 390.601 89.452 389.873 88.516C389.145 87.58 388.781 86.462 388.781 85.162C388.781 84.33 388.937 83.576 389.249 82.9C389.561 82.198 389.99 81.6 390.536 81.106C391.108 80.612 391.784 80.235 392.564 79.975C393.37 79.689 394.241 79.546 395.177 79.546C395.775 79.546 396.451 79.611 397.205 79.741C397.985 79.845 398.674 80.066 399.272 80.404L398.063 84.538C397.751 84.356 397.439 84.239 397.127 84.187C396.841 84.109 396.529 84.07 396.191 84.07C395.593 84.07 395.06 84.252 394.592 84.616C394.15 84.954 393.929 85.461 393.929 86.137C393.929 87.567 394.839 88.282 396.659 88.282H398.687V92.104H396.659C396.087 92.104 395.619 92.299 395.255 92.689C394.891 93.053 394.709 93.547 394.709 94.171V94.912C394.709 95.796 395.008 96.459 395.606 96.901C396.204 97.317 397.075 97.525 398.219 97.525C399.519 97.525 400.546 97.174 401.3 96.472C402.054 95.744 402.431 94.691 402.431 93.313V80.014H408.203V94.054C408.203 95.276 407.956 96.381 407.462 97.369C406.994 98.357 406.318 99.202 405.434 99.904C404.55 100.606 403.484 101.152 402.236 101.542C400.988 101.906 399.584 102.088 398.024 102.088ZM421.612 102.088C420.234 102.088 418.96 101.906 417.79 101.542C416.62 101.152 415.606 100.632 414.748 99.982C413.916 99.306 413.253 98.513 412.759 97.603C412.291 96.693 412.057 95.692 412.057 94.6V92.689C412.057 91.623 412.343 90.778 412.915 90.154C413.513 89.53 414.397 89.218 415.567 89.218H420.247V93.469H417.244V94.093C417.244 95.263 417.634 96.16 418.414 96.784C419.194 97.382 420.325 97.681 421.807 97.681C423.133 97.681 424.147 97.239 424.849 96.355C425.577 95.445 425.941 94.21 425.941 92.65V89.062C425.941 87.502 425.525 86.293 424.693 85.435C423.861 84.551 422.691 84.109 421.183 84.109C420.455 84.109 419.766 84.2 419.116 84.382C418.492 84.564 417.92 84.798 417.4 85.084C416.906 85.37 416.464 85.695 416.074 86.059C415.71 86.397 415.424 86.722 415.216 87.034L411.706 83.914C412.512 82.692 413.721 81.665 415.333 80.833C416.971 79.975 418.999 79.546 421.417 79.546C423.055 79.546 424.524 79.806 425.824 80.326C427.15 80.82 428.268 81.561 429.178 82.549C430.088 83.511 430.777 84.694 431.245 86.098C431.739 87.476 431.986 89.049 431.986 90.817C431.986 92.585 431.752 94.171 431.284 95.575C430.816 96.953 430.127 98.136 429.217 99.124C428.333 100.086 427.241 100.827 425.941 101.347C424.667 101.841 423.224 102.088 421.612 102.088ZM444.765 102.088C443.257 102.088 441.905 101.828 440.709 101.308C439.513 100.788 438.499 100.047 437.667 99.085C436.835 98.123 436.198 96.953 435.756 95.575C435.314 94.171 435.093 92.585 435.093 90.817C435.093 89.101 435.34 87.554 435.834 86.176C436.328 84.772 437.03 83.589 437.94 82.627C438.876 81.639 439.994 80.885 441.294 80.365C442.594 79.819 444.05 79.546 445.662 79.546C447.196 79.546 448.587 79.767 449.835 80.209C451.083 80.625 452.136 81.236 452.994 82.042C453.878 82.848 454.554 83.823 455.022 84.967C455.516 86.111 455.763 87.398 455.763 88.828V101.62H449.991V89.101C449.991 87.515 449.601 86.293 448.821 85.435C448.067 84.551 447.001 84.109 445.623 84.109C444.219 84.109 443.114 84.577 442.308 85.513C441.528 86.423 441.138 87.697 441.138 89.335V92.221C441.138 95.757 442.568 97.525 445.428 97.525C445.688 97.525 445.909 97.525 446.091 97.525C446.299 97.499 446.507 97.46 446.715 97.408L447.378 101.854C446.988 101.958 446.533 102.023 446.013 102.049C445.493 102.075 445.077 102.088 444.765 102.088Z" fill="black"/>
<path d="M232 154.2C232 148.953 227.747 144.7 222.5 144.7H168C163.582 144.7 160 148.282 160 152.7V163.7H222.5C227.747 163.7 232 159.447 232 154.2Z" fill="white"/>
<path fill-rule="evenodd" clip-rule="evenodd" d="M656.772 130.62C661.796 130.62 665.869 134.693 665.869 139.717C665.869 142.794 664.342 145.514 662.004 147.16H667.73C672.297 147.16 676 150.863 676 155.43C676 159.997 672.297 163.7 667.73 163.7H587.925C583.357 163.7 579.655 159.997 579.655 155.43C579.655 150.863 583.357 147.16 587.925 147.16H608.123C605.785 145.514 604.258 142.794 604.258 139.717C604.258 134.693 608.331 130.62 613.355 130.62H656.772Z" fill="white"/>
<path d="M1031.92 130.62C1027.36 130.62 1023.65 134.323 1023.65 138.89C1023.65 143.457 1027.36 147.16 1031.92 147.16H1042.93C1043.53 147.16 1043.83 148.004 1043.42 148.45C1041.93 150.069 1041.02 152.23 1041.02 154.603C1041.02 159.627 1045.09 163.7 1050.12 163.7H1093.54C1098.56 163.7 1102.63 159.627 1102.63 154.603C1102.63 152.23 1101.72 150.069 1100.24 148.45C1099.83 148.004 1100.12 147.16 1100.73 147.16H1111.73C1116.3 147.16 1120 143.457 1120 138.89C1120 134.323 1116.3 130.62 1111.73 130.62H1031.92Z" fill="white"/>
</svg>
