<svg width="1280" height="164" viewBox="0 0 1280 164" fill="none" xmlns="http://www.w3.org/2000/svg">
<rect width="1280" height="163.7" fill="#BDE6FF"/>
<path d="M168.27 0C163.703 0 160 3.7026 160 8.26999C160 12.8374 163.703 16.54 168.27 16.54H179.274C179.88 16.54 180.173 17.3838 179.764 17.8296C178.276 19.4493 177.367 21.61 177.367 23.983C177.367 29.0071 181.44 33.08 186.464 33.08H229.881C234.906 33.08 238.978 29.0071 238.978 23.983C238.978 21.61 238.07 19.4493 236.582 17.8296C236.172 17.3838 236.466 16.54 237.071 16.54H248.075C252.643 16.54 256.345 12.8374 256.345 8.26999C256.345 3.7026 252.643 0 248.075 0H168.27Z" fill="white"/>
<path fill-rule="evenodd" clip-rule="evenodd" d="M601.958 9.09699C601.958 4.07286 606.031 0 611.055 0H654.473C659.497 0 663.57 4.07286 663.57 9.09699C663.57 12.1737 662.042 14.8936 659.704 16.54H679.903C684.47 16.54 688.173 20.2426 688.173 24.81C688.173 29.3774 684.47 33.08 679.903 33.08H663.219C665.557 34.7263 667.084 37.4463 667.084 40.523C667.084 45.5471 663.011 49.62 657.987 49.62H636.485C631.461 49.62 627.388 45.5471 627.388 40.523C627.388 37.4463 628.916 34.7263 631.254 33.08H600.097C595.53 33.08 591.827 29.3774 591.827 24.81C591.827 20.2426 595.53 16.54 600.097 16.54H605.823C603.486 14.8936 601.958 12.1737 601.958 9.09699Z" fill="white"/>
<path fill-rule="evenodd" clip-rule="evenodd" d="M1100.77 0C1105.8 0 1109.87 4.07286 1109.87 9.09699C1109.87 12.1737 1108.34 14.8936 1106 16.54H1111.73C1116.3 16.54 1120 20.2426 1120 24.81C1120 29.3774 1116.3 33.08 1111.73 33.08H1031.92C1027.36 33.08 1023.65 29.3774 1023.65 24.81C1023.65 20.2426 1027.36 16.54 1031.92 16.54H1052.12C1049.79 14.8936 1048.26 12.1737 1048.26 9.09699C1048.26 4.07286 1052.33 0 1057.35 0H1100.77Z" fill="white"/>
<path d="M232 154.2C232 148.953 227.747 144.7 222.5 144.7H168C163.582 144.7 160 148.282 160 152.7V163.7H222.5C227.747 163.7 232 159.447 232 154.2V154.2Z" fill="white"/>
<path fill-rule="evenodd" clip-rule="evenodd" d="M656.772 130.62C661.796 130.62 665.869 134.693 665.869 139.717C665.869 142.794 664.342 145.514 662.004 147.16H667.73C672.297 147.16 676 150.863 676 155.43C676 159.997 672.297 163.7 667.73 163.7H587.925C583.357 163.7 579.655 159.997 579.655 155.43C579.655 150.863 583.357 147.16 587.925 147.16H608.123C605.785 145.514 604.258 142.794 604.258 139.717C604.258 134.693 608.331 130.62 613.355 130.62H656.772Z" fill="white"/>
<path d="M1031.92 130.62C1027.36 130.62 1023.65 134.323 1023.65 138.89C1023.65 143.457 1027.36 147.16 1031.92 147.16H1042.93C1043.53 147.16 1043.83 148.004 1043.42 148.45C1041.93 150.069 1041.02 152.23 1041.02 154.603C1041.02 159.627 1045.09 163.7 1050.12 163.7H1093.54C1098.56 163.7 1102.63 159.627 1102.63 154.603C1102.63 152.23 1101.72 150.069 1100.24 148.45C1099.83 148.004 1100.12 147.16 1100.73 147.16H1111.73C1116.3 147.16 1120 143.457 1120 138.89C1120 134.323 1116.3 130.62 1111.73 130.62H1031.92Z" fill="white"/>
</svg>
