<svg width="64" height="33" viewBox="0 0 64 33" fill="none" xmlns="http://www.w3.org/2000/svg">
<g clip-path="url(#clip0_522_3557)">
<path d="M55.4013 12.5752L56.4238 13.3385V26.2559C56.4238 27.621 56.2778 28.4577 55.6935 28.9862C55.1092 29.5146 54.744 29.632 53.3271 29.632C52.8451 29.632 52.7428 29.632 51.7788 29.632H51.7057L50.5226 28.766V32.5091C51.739 32.7511 52.9787 32.8544 54.2182 32.8173C56.16 33.0622 58.1202 32.5355 59.6812 31.3494C60.4331 30.7853 61.029 30.0374 61.4125 29.1768C61.796 28.3162 61.9542 27.3714 61.8723 26.432V13.6321L63.0409 12.7513L55.4013 12.5752ZM22.959 16.5091L24.1276 15.6431H28.6704V31.5256L27.5018 32.3917H35.5357L34.3525 31.5256V15.6431H38.9099L40.0785 16.5091V12.5752H22.959V16.5091ZM49.1349 12.5458H41.4954L42.6639 13.4119V31.4963L41.4954 32.3623H49.1349L47.9663 31.4963V13.4119L49.1349 12.5458Z" fill="white"/>
<path d="M5.63585 8.61194C2.91893 7.92203 0.640207 4.45779 0.0997441 5.01559C-0.440718 5.57339 1.31213 8.37711 3.02116 9.5661C4.71325 10.4617 6.53838 11.0764 8.42581 11.3863C8.44609 12.323 8.35784 13.259 8.16287 14.1753C7.84151 15.9808 5.24145 23.9515 4.90549 26.8432C4.56953 29.7349 4.40886 32.3771 4.40886 32.3771H9.8427C9.8427 32.3771 11.4349 14.1166 11.3034 11.6799C11.1719 9.24317 8.33816 9.28717 5.63585 8.61194ZM23.5295 5.01559C22.9745 4.45779 20.7104 7.95139 17.9934 8.61194C15.2765 9.27249 12.3551 9.22849 12.2383 11.6799C12.1214 14.1312 13.699 32.3771 13.699 32.3771H19.235C19.235 32.3771 19.1182 29.7349 18.7238 26.8432C18.3294 23.9515 15.8024 15.9808 15.4664 14.1753C15.2714 13.259 15.1832 12.323 15.2035 11.3863C17.0914 11.0784 18.9168 10.4636 20.6081 9.5661C22.3172 8.37711 24.0846 5.58807 23.5295 5.01559Z" fill="white"/>
<path d="M11.814 0.699951C11.034 0.699951 10.2715 0.932462 9.62292 1.36796C8.97435 1.80345 8.46883 2.42244 8.17033 3.14664C7.87182 3.87084 7.79373 4.66765 7.9459 5.43646C8.09808 6.20526 8.47371 6.91146 9.02527 7.46574C9.57684 8.02002 10.2796 8.39751 11.0446 8.55044C11.8096 8.70336 12.6027 8.62491 13.3233 8.32493C14.044 8.02496 14.6599 7.51696 15.0933 6.8652C15.5266 6.21343 15.7579 5.44714 15.7579 4.66327C15.7579 3.61214 15.3424 2.60407 14.6028 1.86081C13.8632 1.11754 12.86 0.699951 11.814 0.699951Z" fill="white"/>
</g>
<defs>
<clipPath id="clip0_522_3557">
<rect width="63.0588" height="32" fill="white" transform="translate(-0.00292969 0.699951)"/>
</clipPath>
</defs>
</svg>
