<svg width="106" height="33" viewBox="0 0 106 33" fill="none" xmlns="http://www.w3.org/2000/svg">
<g clip-path="url(#clip0_522_3496)">
<path d="M81.2626 7.81312C83.2269 7.81312 84.8192 6.22078 84.8192 4.25653C84.8192 2.29229 83.2269 0.699951 81.2626 0.699951C79.2984 0.699951 77.7061 2.29229 77.7061 4.25653C77.7061 6.22078 79.2984 7.81312 81.2626 7.81312Z" fill="white"/>
<path d="M76.2324 32.3351V28.2981L77.5534 27.9979C77.8537 27.9656 77.9183 27.8639 77.9183 27.536V14.6214C77.9183 14.3582 77.8537 14.2565 77.5534 14.1595L76.2324 13.8316V9.81775H86.2971V13.8593L84.9715 14.1919C84.6758 14.2889 84.6066 14.3905 84.6066 14.6538V27.5545C84.6066 27.8501 84.6758 27.9194 84.9391 28.0164L86.2971 28.3813V32.3535L76.2324 32.3351Z" fill="white"/>
<path d="M57.909 32.3351L52.297 14.5707C52.2774 14.4938 52.2353 14.4246 52.176 14.3719C52.1167 14.3192 52.0431 14.2855 51.9644 14.2751L50.2139 13.9794V9.88245H61.5395V13.9794L60.2185 14.3767C60.0907 14.3935 59.9734 14.4562 59.8885 14.553C59.8035 14.6499 59.7566 14.7744 59.7566 14.9032C59.7792 15.2732 59.8458 15.6391 59.9552 15.9933L62.3663 25.5037H62.528L64.9298 16.0072C65.0355 15.6521 65.1022 15.2866 65.1284 14.9171C65.1207 14.7853 65.0671 14.6605 64.9767 14.5642C64.8864 14.468 64.7652 14.4065 64.6342 14.3905L63.3455 13.9933V9.8963H74.3755V13.961L72.5603 14.3212C72.4783 14.3378 72.403 14.3782 72.3438 14.4373C72.2846 14.4965 72.2443 14.5718 72.2277 14.6538L66.782 32.349L57.909 32.3351Z" fill="white"/>
<path d="M88.5464 30.7138C88.5683 28.6653 88.7132 26.6201 88.9806 24.5891H94.3986L94.9298 27.171C95.6238 27.4042 96.3501 27.5273 97.0822 27.5359C98.3385 27.5359 99.1653 26.9724 99.1653 26.0764C99.1653 24.954 97.7427 24.5244 96.0522 24.0255C92.6757 23.0001 88.6388 21.6745 88.6388 16.4412C88.6388 11.208 92.0799 9.48975 97.2808 9.48975C100.593 9.48975 102.745 10.3489 105.059 11.4436C105.092 13.3808 104.972 15.3176 104.699 17.2357H99.2762L99.0129 14.954C98.488 14.7331 97.9241 14.62 97.3547 14.6214C96.1307 14.6214 95.3362 14.917 95.3362 15.8777C95.3362 17.0048 96.8605 17.6699 98.5141 18.2288C101.747 19.2865 105.867 20.7461 105.867 25.5498C105.867 30.3535 102.819 32.6999 97.0591 32.6999C94.1088 32.6815 91.2001 32.0029 88.5464 30.7138Z" fill="white"/>
<path d="M13.4935 9.88239V13.9701L15.1147 14.432C15.7891 14.6122 15.7798 14.9586 15.4288 16.0071L12.2879 25.5267H12.0616L9.63666 16.0071C9.36414 14.9909 9.36876 14.566 9.95075 14.432L11.6736 13.9701V9.88239H0.250977V13.9701L2.09855 14.3304C2.27869 14.3766 2.32026 14.4644 2.36645 14.6445L7.90918 32.335H15.8768L18.6482 22.9355L21.4196 32.3212H29.4103L34.9531 14.6307C34.9743 14.5533 35.0152 14.4829 35.0719 14.4262C35.1286 14.3695 35.1991 14.3285 35.2764 14.3073L37.0639 13.9563V9.86853H25.6505V13.9563L27.3734 14.4182C27.96 14.5521 27.96 14.9771 27.6875 15.9932L25.2625 25.5129H25.0408L21.8815 16.0071C21.535 14.9586 21.5212 14.6214 22.1956 14.432L23.8168 13.9701V9.88239H13.4935Z" fill="white"/>
<path d="M42.288 22.1919H45.2764V21.342C45.2764 20.4182 44.7499 19.9286 43.7984 19.9286C42.8469 19.9286 42.288 20.4228 42.288 21.342V22.1919ZM35.9185 26.0672V21.7346C35.9185 17.7623 39.0039 15.1342 43.669 15.1342C48.3342 15.1342 51.415 17.7623 51.415 21.7346V25.4298H42.288V26.3166C42.288 27.2681 43.4058 27.8917 44.5974 27.8917C45.7891 27.8917 46.9623 27.3651 47.1563 26.5476H51.3919V29.7808C49.6875 31.7854 47.0917 32.6723 44.3988 32.6723C39.3365 32.6676 35.9185 30.0395 35.9185 26.0672Z" fill="white"/>
</g>
<defs>
<clipPath id="clip0_522_3496">
<rect width="105.617" height="32" fill="white" transform="translate(0.250977 0.699951)"/>
</clipPath>
</defs>
</svg>
