<svg width="97" height="34" viewBox="0 0 97 34" fill="none" xmlns="http://www.w3.org/2000/svg">
<path d="M8.26999 0C3.7026 0 0 3.7026 0 8.26999C0 12.8374 3.7026 16.54 8.26999 16.54H19.2742C19.8797 16.54 20.1735 17.3838 19.7638 17.8296C18.2756 19.4493 17.367 21.61 17.367 23.983C17.367 29.0071 21.4398 33.08 26.464 33.08H69.8814C74.9056 33.08 78.9784 29.0071 78.9784 23.983C78.9784 21.61 78.0699 19.4493 76.5816 17.8296C76.1719 17.3838 76.4657 16.54 77.0712 16.54H88.0754C92.6428 16.54 96.3454 12.8374 96.3454 8.26999C96.3454 3.7026 92.6428 0 88.0754 0H8.26999Z" fill="white"/>
</svg>
