<svg width="24" height="25" viewBox="0 0 24 25" fill="none" xmlns="http://www.w3.org/2000/svg">
<mask id="mask0_434_3897" style="mask-type:alpha" maskUnits="userSpaceOnUse" x="0" y="0" width="24" height="25">
<rect y="0.699951" width="24" height="24" fill="#D9D9D9"/>
</mask>
<g mask="url(#mask0_434_3897)">
<path d="M12.0002 21.65C11.6669 21.65 11.346 21.5916 11.0377 21.475C10.7294 21.3583 10.4502 21.1833 10.2002 20.95L8.1002 19.025C6.41686 17.475 4.84603 15.8833 3.3877 14.25C1.92936 12.6166 1.2002 10.75 1.2002 8.64995C1.2002 6.88395 1.8002 5.40912 3.0002 4.22545C4.2002 3.04179 5.67945 2.44995 7.43795 2.44995C8.42945 2.44995 9.31686 2.64995 10.1002 3.04995C10.8835 3.44995 11.5169 3.86662 12.0002 4.29995C12.4835 3.86662 13.1169 3.44995 13.9002 3.04995C14.6835 2.64995 15.5709 2.44995 16.5624 2.44995C18.3209 2.44995 19.8002 3.04179 21.0002 4.22545C22.2002 5.40912 22.8002 6.88395 22.8002 8.64995C22.8002 10.75 22.071 12.6166 20.6127 14.25C19.1544 15.8833 17.5919 17.4666 15.9252 19L13.8002 20.95C13.5502 21.1833 13.271 21.3583 12.9627 21.475C12.6544 21.5916 12.3335 21.65 12.0002 21.65ZM10.7502 7.09995C10.4669 6.61662 10.0419 6.16245 9.4752 5.73745C8.90853 5.31245 8.23353 5.09995 7.4502 5.09995C6.4217 5.09995 5.56453 5.43328 4.8787 6.09995C4.19303 6.76662 3.8502 7.61778 3.8502 8.65345C3.8502 9.55112 4.1627 10.4916 4.7877 11.475C5.4127 12.4583 6.1627 13.4208 7.0377 14.3625C7.9127 15.3041 8.8127 16.1791 9.7377 16.9875C10.6627 17.7958 11.4169 18.4666 12.0002 19C12.5835 18.4666 13.3377 17.7958 14.2627 16.9875C15.1877 16.1791 16.0877 15.3041 16.9627 14.3625C17.8377 13.4208 18.5877 12.4583 19.2127 11.475C19.8377 10.4916 20.1502 9.55112 20.1502 8.65345C20.1502 7.61778 19.8074 6.76662 19.1217 6.09995C18.4359 5.43328 17.5787 5.09995 16.5502 5.09995C15.7669 5.09995 15.0877 5.31245 14.5127 5.73745C13.9377 6.16245 13.5169 6.61662 13.2502 7.09995C13.1169 7.33328 12.9391 7.51245 12.7169 7.63745C12.4946 7.76245 12.2613 7.82495 12.0169 7.82495C11.7724 7.82495 11.5377 7.76245 11.3127 7.63745C11.0877 7.51245 10.9002 7.33328 10.7502 7.09995Z" fill="#454343"/>
</g>
</svg>
