<svg width="22" height="20" viewBox="0 0 22 20" fill="none" xmlns="http://www.w3.org/2000/svg">
<path d="M11.0002 19.65C10.6669 19.65 10.346 19.5916 10.0377 19.475C9.72936 19.3583 9.4502 19.1833 9.2002 18.95L7.1002 17.025C5.41686 15.475 3.84603 13.8833 2.3877 12.25C0.929362 10.6166 0.200195 8.74995 0.200195 6.64995C0.200195 4.88328 0.800195 3.40828 2.0002 2.22495C3.2002 1.04162 4.68353 0.449951 6.4502 0.449951C7.43353 0.449951 8.31686 0.649951 9.1002 1.04995C9.88353 1.44995 10.5169 1.86662 11.0002 2.29995C11.4835 1.86662 12.1169 1.44995 12.9002 1.04995C13.6835 0.649951 14.5669 0.449951 15.5502 0.449951C17.3169 0.449951 18.8002 1.04162 20.0002 2.22495C21.2002 3.40828 21.8002 4.88328 21.8002 6.64995C21.8002 8.74995 21.071 10.6166 19.6127 12.25C18.1544 13.8833 16.5919 15.4666 14.9252 17L12.8002 18.95C12.5502 19.1833 12.271 19.3583 11.9627 19.475C11.6544 19.5916 11.3335 19.65 11.0002 19.65Z" fill="#2579F5"/>
</svg>
