<svg width="24" height="25" viewBox="0 0 24 25" fill="none" xmlns="http://www.w3.org/2000/svg">
<mask id="mask0_434_2275" style="mask-type:alpha" maskUnits="userSpaceOnUse" x="0" y="0" width="24" height="25">
<rect y="0.699951" width="24" height="24" fill="#D9D9D9"/>
</mask>
<g mask="url(#mask0_434_2275)">
<path d="M10.6752 14H5.5252C5.15853 14 4.84603 13.8708 4.5877 13.6125C4.32936 13.3542 4.2002 13.0417 4.2002 12.675C4.2002 12.3083 4.32936 11.9958 4.5877 11.7375C4.84603 11.4792 5.15853 11.35 5.5252 11.35H10.6752V6.2C10.6752 5.83333 10.8044 5.52083 11.0627 5.2625C11.321 5.00417 11.6335 4.875 12.0002 4.875C12.3669 4.875 12.6794 5.00417 12.9377 5.2625C13.196 5.52083 13.3252 5.83333 13.3252 6.2V11.35H18.4752C18.8419 11.35 19.1544 11.4792 19.4127 11.7375C19.671 11.9958 19.8002 12.3083 19.8002 12.675C19.8002 13.0417 19.671 13.3542 19.4127 13.6125C19.1544 13.8708 18.8419 14 18.4752 14H13.3252V19.15C13.3252 19.5167 13.196 19.8292 12.9377 20.0875C12.6794 20.3458 12.3669 20.475 12.0002 20.475C11.6335 20.475 11.321 20.3458 11.0627 20.0875C10.8044 19.8292 10.6752 19.5167 10.6752 19.15V14Z" fill="white"/>
</g>
</svg>
