<svg width="24" height="25" viewBox="0 0 24 25" fill="none" xmlns="http://www.w3.org/2000/svg">
<mask id="mask0_434_3217" style="mask-type:alpha" maskUnits="userSpaceOnUse" x="0" y="0" width="24" height="25">
<rect y="0.699951" width="24" height="24" fill="#D9D9D9"/>
</mask>
<g mask="url(#mask0_434_3217)">
<path d="M9.4252 17.25C7.44186 17.25 5.7627 16.5625 4.3877 15.1875C3.0127 13.8125 2.3252 12.1333 2.3252 10.15C2.3252 8.16662 3.0127 6.48746 4.3877 5.11246C5.7627 3.73746 7.44186 3.04996 9.4252 3.04996C11.4085 3.04996 13.0877 3.73746 14.4627 5.11246C15.8377 6.48746 16.5252 8.16662 16.5252 10.15C16.5252 10.9 16.421 11.6166 16.2127 12.3C16.0044 12.9833 15.7002 13.5916 15.3002 14.125L20.7502 19.575C21.0002 19.825 21.1252 20.1333 21.1252 20.5C21.1252 20.8666 21.0002 21.175 20.7502 21.425C20.5002 21.675 20.1919 21.8 19.8252 21.8C19.4585 21.8 19.1502 21.675 18.9002 21.425L13.4752 16C12.9752 16.3833 12.3627 16.6875 11.6377 16.9125C10.9127 17.1375 10.1752 17.25 9.4252 17.25ZM9.4252 14.6C10.6752 14.6 11.7294 14.1708 12.5877 13.3125C13.446 12.4541 13.8752 11.4 13.8752 10.15C13.8752 8.89996 13.446 7.84579 12.5877 6.98746C11.7294 6.12912 10.6752 5.69996 9.4252 5.69996C8.1752 5.69996 7.12103 6.12912 6.2627 6.98746C5.40436 7.84579 4.9752 8.89996 4.9752 10.15C4.9752 11.4 5.40436 12.4541 6.2627 13.3125C7.12103 14.1708 8.1752 14.6 9.4252 14.6Z" fill="#454343"/>
</g>
</svg>
